<mxfile host="drawio-plugin" modified="2023-07-17T09:02:15.025Z" agent="5.0 (Windows NT 6.2; Win64; x64) AppleWebKit/537.36 (KHTML, like Gecko) Chrome/104.0.5112.102 Safari/537.36" etag="NXHmvpzgVdz3EOdMk412" version="20.5.3" type="embed" pages="2"><diagram id="prtHgNgQTEPvFCAcTncT" name="Page-1"><mxGraphModel dx="2379" dy="1722" grid="1" gridSize="10" guides="1" tooltips="1" connect="1" arrows="1" fold="1" page="1" pageScale="1" pageWidth="827" pageHeight="1169" math="0" shadow="0"><root><mxCell id="0"/><mxCell id="1" parent="0"/><mxCell id="dNxyNK7c78bLwvsdeMH5-19" value="main.py" style="swimlane;html=1;childLayout=stackLayout;resizeParent=1;resizeParentMax=0;horizontal=0;startSize=20;horizontalStack=0;" parent="1" vertex="1"><mxGeometry x="-827" y="180" width="2477" height="690" as="geometry"/></mxCell><mxCell id="dNxyNK7c78bLwvsdeMH5-20" value="main" style="swimlane;html=1;startSize=20;horizontal=0;" parent="dNxyNK7c78bLwvsdeMH5-19" vertex="1"><mxGeometry x="20" width="2457" height="440" as="geometry"/></mxCell><mxCell id="K8BKGlM56tcpJbywQDiU-9" value="" style="edgeStyle=orthogonalEdgeStyle;rounded=0;orthogonalLoop=1;jettySize=auto;html=1;" parent="dNxyNK7c78bLwvsdeMH5-20" source="K8BKGlM56tcpJbywQDiU-7" target="K8BKGlM56tcpJbywQDiU-8" edge="1"><mxGeometry relative="1" as="geometry"/></mxCell><mxCell id="K8BKGlM56tcpJbywQDiU-7" value="进入程序" style="ellipse;whiteSpace=wrap;html=1;" parent="dNxyNK7c78bLwvsdeMH5-20" vertex="1"><mxGeometry x="37" y="20" width="80" height="80" as="geometry"/></mxCell><mxCell id="K8BKGlM56tcpJbywQDiU-11" style="edgeStyle=orthogonalEdgeStyle;rounded=0;orthogonalLoop=1;jettySize=auto;html=1;entryX=0;entryY=0.5;entryDx=0;entryDy=0;" parent="dNxyNK7c78bLwvsdeMH5-20" source="K8BKGlM56tcpJbywQDiU-8" target="K8BKGlM56tcpJbywQDiU-10" edge="1"><mxGeometry relative="1" as="geometry"/></mxCell><mxCell id="K8BKGlM56tcpJbywQDiU-8" value="创建main对象" style="whiteSpace=wrap;html=1;" parent="dNxyNK7c78bLwvsdeMH5-20" vertex="1"><mxGeometry x="157" y="30" width="120" height="60" as="geometry"/></mxCell><mxCell id="K8BKGlM56tcpJbywQDiU-10" value="main&amp;nbsp; :&amp;nbsp; class" style="swimlane;horizontal=0;whiteSpace=wrap;html=1;" parent="dNxyNK7c78bLwvsdeMH5-20" vertex="1"><mxGeometry x="277" y="70" width="1123" height="370" as="geometry"><mxRectangle x="277" y="70" width="40" height="110" as="alternateBounds"/></mxGeometry></mxCell><mxCell id="K8BKGlM56tcpJbywQDiU-50" value="__init__&amp;nbsp; :&amp;nbsp; func" style="swimlane;horizontal=0;whiteSpace=wrap;html=1;" parent="K8BKGlM56tcpJbywQDiU-10" vertex="1"><mxGeometry x="30" width="980" height="355" as="geometry"/></mxCell><mxCell id="K8BKGlM56tcpJbywQDiU-14" value="" style="edgeStyle=orthogonalEdgeStyle;rounded=0;orthogonalLoop=1;jettySize=auto;html=1;" parent="K8BKGlM56tcpJbywQDiU-50" target="K8BKGlM56tcpJbywQDiU-13" edge="1"><mxGeometry relative="1" as="geometry"><mxPoint x="110" y="125" as="sourcePoint"/></mxGeometry></mxCell><mxCell id="K8BKGlM56tcpJbywQDiU-12" value="创建app对象" style="rounded=0;whiteSpace=wrap;html=1;" parent="K8BKGlM56tcpJbywQDiU-50" vertex="1"><mxGeometry x="30" y="95" width="80" height="60" as="geometry"/></mxCell><mxCell id="K8BKGlM56tcpJbywQDiU-13" value="创建线程对象" style="rounded=0;whiteSpace=wrap;html=1;" parent="K8BKGlM56tcpJbywQDiU-50" vertex="1"><mxGeometry x="160" y="95" width="80" height="60" as="geometry"/></mxCell><mxCell id="K8BKGlM56tcpJbywQDiU-15" value="&lt;p&gt;这个类位于：&lt;span style=&quot;color: rgb(255, 255, 255); font-family: &amp;quot;JetBrains Mono&amp;quot;, monospace; font-size: 9.8pt;&quot;&gt;concurrent&lt;/span&gt;&lt;span style=&quot;font-family: &amp;quot;JetBrains Mono&amp;quot;, monospace; font-size: 9.8pt; color: rgb(147, 146, 147);&quot;&gt;.&lt;/span&gt;&lt;span style=&quot;color: rgb(255, 255, 255); font-family: &amp;quot;JetBrains Mono&amp;quot;, monospace; font-size: 9.8pt;&quot;&gt;futures &lt;/span&gt;&lt;span style=&quot;font-family: &amp;quot;JetBrains Mono&amp;quot;, monospace; font-size: 9.8pt;&quot;&gt;&lt;font color=&quot;#ff6188&quot;&gt;&lt;i&gt;.&lt;/i&gt;&lt;/font&gt;&lt;/span&gt;&lt;span style=&quot;color: rgb(255, 255, 255); font-family: &amp;quot;JetBrains Mono&amp;quot;, monospace; font-size: 9.8pt;&quot;&gt;ThreadPoolExecutor&lt;/span&gt;&lt;/p&gt;" style="shape=callout;whiteSpace=wrap;html=1;perimeter=calloutPerimeter;align=center;" parent="K8BKGlM56tcpJbywQDiU-50" vertex="1"><mxGeometry x="160" y="15" width="120" height="80" as="geometry"/></mxCell><mxCell id="K8BKGlM56tcpJbywQDiU-55" value="" style="edgeStyle=orthogonalEdgeStyle;rounded=0;orthogonalLoop=1;jettySize=auto;html=1;" parent="K8BKGlM56tcpJbywQDiU-50" source="K8BKGlM56tcpJbywQDiU-18" target="K8BKGlM56tcpJbywQDiU-54" edge="1"><mxGeometry relative="1" as="geometry"/></mxCell><mxCell id="K8BKGlM56tcpJbywQDiU-18" value="创建宠物列表" style="rounded=0;whiteSpace=wrap;html=1;" parent="K8BKGlM56tcpJbywQDiU-50" vertex="1"><mxGeometry x="290" y="95" width="80" height="60" as="geometry"/></mxCell><mxCell id="K8BKGlM56tcpJbywQDiU-19" value="" style="edgeStyle=orthogonalEdgeStyle;rounded=0;orthogonalLoop=1;jettySize=auto;html=1;" parent="K8BKGlM56tcpJbywQDiU-50" source="K8BKGlM56tcpJbywQDiU-13" target="K8BKGlM56tcpJbywQDiU-18" edge="1"><mxGeometry relative="1" as="geometry"/></mxCell><mxCell id="K8BKGlM56tcpJbywQDiU-28" value="&lt;div style=&quot;background-color: rgb(45, 42, 46); color: rgb(255, 255, 255); font-family: &amp;quot;JetBrains Mono&amp;quot;, monospace; font-size: 9.8pt;&quot;&gt;self&lt;span style=&quot;font-size: 9.8pt; color: rgb(147, 146, 147);&quot;&gt;.&lt;/span&gt;app = &lt;span style=&quot;color:#a9dc76;&quot;&gt;QApplication&lt;/span&gt;&lt;span style=&quot;color:#ffd866;&quot;&gt;([])&lt;br&gt;&lt;/span&gt;&lt;/div&gt;" style="shape=callout;whiteSpace=wrap;html=1;perimeter=calloutPerimeter;" parent="K8BKGlM56tcpJbywQDiU-50" vertex="1"><mxGeometry x="30" y="15" width="120" height="80" as="geometry"/></mxCell><mxCell id="K8BKGlM56tcpJbywQDiU-29" value="&lt;div style=&quot;background-color: rgb(45, 42, 46); color: rgb(255, 255, 255); font-family: &amp;quot;JetBrains Mono&amp;quot;, monospace; font-size: 9.8pt;&quot;&gt;self&lt;span style=&quot;font-size: 9.8pt; color: rgb(147, 146, 147);&quot;&gt;.&lt;/span&gt;pets = &lt;span style=&quot;color:#ffd866;&quot;&gt;[]&lt;br&gt;&lt;/span&gt;&lt;/div&gt;" style="shape=callout;whiteSpace=wrap;html=1;perimeter=calloutPerimeter;" parent="K8BKGlM56tcpJbywQDiU-50" vertex="1"><mxGeometry x="290" y="15" width="80" height="80" as="geometry"/></mxCell><mxCell id="K8BKGlM56tcpJbywQDiU-30" value="对正常操作进行初始化，创建系统托盘及其菜单" style="rounded=0;whiteSpace=wrap;html=1;" parent="K8BKGlM56tcpJbywQDiU-50" vertex="1"><mxGeometry x="545" y="95" width="80" height="60" as="geometry"/></mxCell><mxCell id="K8BKGlM56tcpJbywQDiU-31" value="" style="edgeStyle=orthogonalEdgeStyle;rounded=0;orthogonalLoop=1;jettySize=auto;html=1;exitX=1;exitY=0.5;exitDx=0;exitDy=0;" parent="K8BKGlM56tcpJbywQDiU-50" source="K8BKGlM56tcpJbywQDiU-54" target="K8BKGlM56tcpJbywQDiU-30" edge="1"><mxGeometry relative="1" as="geometry"/></mxCell><mxCell id="K8BKGlM56tcpJbywQDiU-32" value="code.1" style="shape=callout;whiteSpace=wrap;html=1;perimeter=calloutPerimeter;" parent="K8BKGlM56tcpJbywQDiU-50" vertex="1"><mxGeometry x="510" y="15" width="120" height="80" as="geometry"/></mxCell><mxCell id="K8BKGlM56tcpJbywQDiU-37" value="创建宠物" style="rounded=0;whiteSpace=wrap;html=1;" parent="K8BKGlM56tcpJbywQDiU-50" vertex="1"><mxGeometry x="660" y="95" width="80" height="60" as="geometry"/></mxCell><mxCell id="K8BKGlM56tcpJbywQDiU-38" value="" style="edgeStyle=orthogonalEdgeStyle;rounded=0;orthogonalLoop=1;jettySize=auto;html=1;" parent="K8BKGlM56tcpJbywQDiU-50" source="K8BKGlM56tcpJbywQDiU-30" target="K8BKGlM56tcpJbywQDiU-37" edge="1"><mxGeometry relative="1" as="geometry"/></mxCell><mxCell id="K8BKGlM56tcpJbywQDiU-39" value="创建宠物&amp;nbsp; :&amp;nbsp; func" style="swimlane;whiteSpace=wrap;html=1;" parent="K8BKGlM56tcpJbywQDiU-50" vertex="1"><mxGeometry x="730" y="155" width="250" height="200" as="geometry"><mxRectangle x="730" y="155" width="90" height="30" as="alternateBounds"/></mxGeometry></mxCell><mxCell id="K8BKGlM56tcpJbywQDiU-45" value="" style="edgeStyle=orthogonalEdgeStyle;rounded=0;orthogonalLoop=1;jettySize=auto;html=1;" parent="K8BKGlM56tcpJbywQDiU-39" source="K8BKGlM56tcpJbywQDiU-41" target="K8BKGlM56tcpJbywQDiU-44" edge="1"><mxGeometry relative="1" as="geometry"/></mxCell><mxCell id="K8BKGlM56tcpJbywQDiU-41" value="遍历七次" style="whiteSpace=wrap;html=1;" parent="K8BKGlM56tcpJbywQDiU-39" vertex="1"><mxGeometry x="10" y="120" width="80" height="60" as="geometry"/></mxCell><mxCell id="K8BKGlM56tcpJbywQDiU-42" value="for i in range(7):" style="shape=callout;whiteSpace=wrap;html=1;perimeter=calloutPerimeter;" parent="K8BKGlM56tcpJbywQDiU-39" vertex="1"><mxGeometry x="10" y="40" width="120" height="80" as="geometry"/></mxCell><mxCell id="K8BKGlM56tcpJbywQDiU-44" value="遍历七次，向宠物列表里添加pet类" style="whiteSpace=wrap;html=1;" parent="K8BKGlM56tcpJbywQDiU-39" vertex="1"><mxGeometry x="170" y="120" width="80" height="60" as="geometry"/></mxCell><mxCell id="K8BKGlM56tcpJbywQDiU-40" style="edgeStyle=orthogonalEdgeStyle;rounded=0;orthogonalLoop=1;jettySize=auto;html=1;entryX=0;entryY=0.5;entryDx=0;entryDy=0;" parent="K8BKGlM56tcpJbywQDiU-50" source="K8BKGlM56tcpJbywQDiU-37" target="K8BKGlM56tcpJbywQDiU-39" edge="1"><mxGeometry relative="1" as="geometry"/></mxCell><mxCell id="K8BKGlM56tcpJbywQDiU-46" value="创建宠物" style="rounded=0;whiteSpace=wrap;html=1;" parent="K8BKGlM56tcpJbywQDiU-50" vertex="1"><mxGeometry x="790" y="95" width="80" height="60" as="geometry"/></mxCell><mxCell id="K8BKGlM56tcpJbywQDiU-47" value="" style="edgeStyle=orthogonalEdgeStyle;rounded=0;orthogonalLoop=1;jettySize=auto;html=1;" parent="K8BKGlM56tcpJbywQDiU-50" source="K8BKGlM56tcpJbywQDiU-37" target="K8BKGlM56tcpJbywQDiU-46" edge="1"><mxGeometry relative="1" as="geometry"/></mxCell><mxCell id="K8BKGlM56tcpJbywQDiU-49" value="pet.py" style="shape=callout;whiteSpace=wrap;html=1;perimeter=calloutPerimeter;" parent="K8BKGlM56tcpJbywQDiU-50" vertex="1"><mxGeometry x="650" y="15" width="120" height="80" as="geometry"/></mxCell><mxCell id="K8BKGlM56tcpJbywQDiU-54" value="创建控制窗口对象" style="rounded=0;whiteSpace=wrap;html=1;" parent="K8BKGlM56tcpJbywQDiU-50" vertex="1"><mxGeometry x="420" y="95" width="80" height="60" as="geometry"/></mxCell><mxCell id="K8BKGlM56tcpJbywQDiU-56" value="configWindow.py" style="shape=callout;whiteSpace=wrap;html=1;perimeter=calloutPerimeter;" parent="K8BKGlM56tcpJbywQDiU-50" vertex="1"><mxGeometry x="380" y="15" width="120" height="80" as="geometry"/></mxCell><mxCell id="dNxyNK7c78bLwvsdeMH5-21" value="Lane 2" style="swimlane;html=1;startSize=20;horizontal=0;" parent="dNxyNK7c78bLwvsdeMH5-19" vertex="1"><mxGeometry x="20" y="440" width="2457" height="130" as="geometry"/></mxCell><mxCell id="dNxyNK7c78bLwvsdeMH5-22" value="Lane 3" style="swimlane;html=1;startSize=20;horizontal=0;" parent="dNxyNK7c78bLwvsdeMH5-19" vertex="1"><mxGeometry x="20" y="570" width="2457" height="120" as="geometry"/></mxCell><mxCell id="K8BKGlM56tcpJbywQDiU-20" value="public.py" style="swimlane;horizontal=0;whiteSpace=wrap;html=1;" parent="1" vertex="1" collapsed="1"><mxGeometry x="-827" y="-520" width="40" height="80" as="geometry"><mxRectangle x="-827" y="-340" width="947" height="200" as="alternateBounds"/></mxGeometry></mxCell><mxCell id="K8BKGlM56tcpJbywQDiU-43" value="pet.py" style="swimlane;horizontal=0;whiteSpace=wrap;html=1;" parent="1" vertex="1"><mxGeometry x="-827" y="-130" width="2477" height="310" as="geometry"><mxRectangle x="-780" y="-330" width="40" height="70" as="alternateBounds"/></mxGeometry></mxCell><mxCell id="K8BKGlM56tcpJbywQDiU-51" value="Pet&amp;nbsp; :&amp;nbsp; class" style="swimlane;horizontal=0;whiteSpace=wrap;html=1;" parent="K8BKGlM56tcpJbywQDiU-43" vertex="1"><mxGeometry x="27" width="2443" height="250" as="geometry"/></mxCell><mxCell id="K8BKGlM56tcpJbywQDiU-52" value="__init__&amp;nbsp; :&amp;nbsp; fnuc" style="swimlane;horizontal=0;whiteSpace=wrap;html=1;" parent="K8BKGlM56tcpJbywQDiU-51" vertex="1"><mxGeometry x="30" width="630" height="230" as="geometry"/></mxCell><mxCell id="HPnt9M8XdwYVvtY8RArY-8" value="" style="edgeStyle=orthogonalEdgeStyle;rounded=0;orthogonalLoop=1;jettySize=auto;html=1;" parent="K8BKGlM56tcpJbywQDiU-52" source="K8BKGlM56tcpJbywQDiU-72" target="K8BKGlM56tcpJbywQDiU-73" edge="1"><mxGeometry relative="1" as="geometry"/></mxCell><mxCell id="K8BKGlM56tcpJbywQDiU-72" value="基本初始化" style="rounded=0;whiteSpace=wrap;html=1;" parent="K8BKGlM56tcpJbywQDiU-52" vertex="1"><mxGeometry x="30" y="140" width="120" height="60" as="geometry"/></mxCell><mxCell id="ngExV_0SpiD9kxkRd0u9-2" value="" style="edgeStyle=orthogonalEdgeStyle;rounded=0;orthogonalLoop=1;jettySize=auto;html=1;" parent="K8BKGlM56tcpJbywQDiU-52" source="K8BKGlM56tcpJbywQDiU-73" target="ngExV_0SpiD9kxkRd0u9-1" edge="1"><mxGeometry relative="1" as="geometry"/></mxCell><mxCell id="K8BKGlM56tcpJbywQDiU-73" value="设置透明背景" style="rounded=0;whiteSpace=wrap;html=1;" parent="K8BKGlM56tcpJbywQDiU-52" vertex="1"><mxGeometry x="190" y="140" width="120" height="60" as="geometry"/></mxCell><mxCell id="K8BKGlM56tcpJbywQDiU-74" value="以及改变物品等功能方法" style="rounded=0;whiteSpace=wrap;html=1;" parent="K8BKGlM56tcpJbywQDiU-52" vertex="1"><mxGeometry x="650" y="140" width="120" height="60" as="geometry"/></mxCell><mxCell id="HPnt9M8XdwYVvtY8RArY-18" style="edgeStyle=orthogonalEdgeStyle;rounded=0;orthogonalLoop=1;jettySize=auto;html=1;entryX=0.5;entryY=0;entryDx=0;entryDy=0;" parent="K8BKGlM56tcpJbywQDiU-52" target="K8BKGlM56tcpJbywQDiU-74" edge="1"><mxGeometry relative="1" as="geometry"><mxPoint x="630" y="115" as="sourcePoint"/></mxGeometry></mxCell><mxCell id="ngExV_0SpiD9kxkRd0u9-1" value="创建AI对象" style="rounded=0;whiteSpace=wrap;html=1;" parent="K8BKGlM56tcpJbywQDiU-52" vertex="1"><mxGeometry x="390" y="140" width="120" height="60" as="geometry"/></mxCell><mxCell id="ngExV_0SpiD9kxkRd0u9-3" value="AI_.py" style="shape=callout;whiteSpace=wrap;html=1;perimeter=calloutPerimeter;" parent="K8BKGlM56tcpJbywQDiU-52" vertex="1"><mxGeometry x="390" y="60" width="120" height="80" as="geometry"/></mxCell><mxCell id="HPnt9M8XdwYVvtY8RArY-17" style="edgeStyle=orthogonalEdgeStyle;rounded=0;orthogonalLoop=1;jettySize=auto;html=1;" parent="K8BKGlM56tcpJbywQDiU-51" source="K8BKGlM56tcpJbywQDiU-74" target="HPnt9M8XdwYVvtY8RArY-1" edge="1"><mxGeometry relative="1" as="geometry"/></mxCell><mxCell id="HPnt9M8XdwYVvtY8RArY-10" value="moveStep" style="swimlane;horizontal=0;whiteSpace=wrap;html=1;" parent="K8BKGlM56tcpJbywQDiU-51" vertex="1" collapsed="1"><mxGeometry x="900" y="10" width="40" height="90" as="geometry"><mxRectangle x="330" y="15" width="533" height="200" as="alternateBounds"/></mxGeometry></mxCell><mxCell id="HPnt9M8XdwYVvtY8RArY-15" value="" style="edgeStyle=orthogonalEdgeStyle;rounded=0;orthogonalLoop=1;jettySize=auto;html=1;" parent="HPnt9M8XdwYVvtY8RArY-10" source="HPnt9M8XdwYVvtY8RArY-13" target="HPnt9M8XdwYVvtY8RArY-14" edge="1"><mxGeometry relative="1" as="geometry"/></mxCell><mxCell id="HPnt9M8XdwYVvtY8RArY-13" value="判断方向" style="rounded=0;whiteSpace=wrap;html=1;" parent="HPnt9M8XdwYVvtY8RArY-10" vertex="1"><mxGeometry x="23" y="95" width="120" height="60" as="geometry"/></mxCell><mxCell id="HPnt9M8XdwYVvtY8RArY-14" value="移动距离" style="rounded=0;whiteSpace=wrap;html=1;" parent="HPnt9M8XdwYVvtY8RArY-10" vertex="1"><mxGeometry x="173" y="95" width="120" height="60" as="geometry"/></mxCell><mxCell id="HPnt9M8XdwYVvtY8RArY-11" value="方向，距离" style="ellipse;shape=cloud;whiteSpace=wrap;html=1;" parent="HPnt9M8XdwYVvtY8RArY-10" vertex="1"><mxGeometry x="30" y="10" width="120" height="80" as="geometry"/></mxCell><mxCell id="HPnt9M8XdwYVvtY8RArY-16" style="edgeStyle=orthogonalEdgeStyle;rounded=0;orthogonalLoop=1;jettySize=auto;html=1;entryX=0.5;entryY=1;entryDx=0;entryDy=0;" parent="K8BKGlM56tcpJbywQDiU-51" source="K8BKGlM56tcpJbywQDiU-74" target="HPnt9M8XdwYVvtY8RArY-10" edge="1"><mxGeometry relative="1" as="geometry"/></mxCell><mxCell id="HPnt9M8XdwYVvtY8RArY-1" value="moveMainWindow" style="swimlane;horizontal=0;whiteSpace=wrap;html=1;" parent="K8BKGlM56tcpJbywQDiU-51" vertex="1" collapsed="1"><mxGeometry x="850" y="10" width="40" height="140" as="geometry"><mxRectangle x="257" y="-20" width="200" height="200" as="alternateBounds"/></mxGeometry></mxCell><mxCell id="HPnt9M8XdwYVvtY8RArY-4" value="接受pos：object" style="ellipse;shape=cloud;whiteSpace=wrap;html=1;" parent="HPnt9M8XdwYVvtY8RArY-1" vertex="1"><mxGeometry x="23" y="10" width="120" height="80" as="geometry"/></mxCell><mxCell id="HPnt9M8XdwYVvtY8RArY-5" value="移动至pos" style="whiteSpace=wrap;html=1;" parent="HPnt9M8XdwYVvtY8RArY-1" vertex="1"><mxGeometry x="43" y="100" width="120" height="60" as="geometry"/></mxCell><mxCell id="K8BKGlM56tcpJbywQDiU-57" value="configWindow.py&lt;br&gt;" style="swimlane;horizontal=0;whiteSpace=wrap;html=1;" parent="1" vertex="1" collapsed="1"><mxGeometry x="-770" y="-520" width="40" height="130" as="geometry"><mxRectangle x="-770" y="-330" width="1210" height="420" as="alternateBounds"/></mxGeometry></mxCell><mxCell id="K8BKGlM56tcpJbywQDiU-58" value="configWindow&amp;nbsp; :&amp;nbsp; class" style="swimlane;horizontal=0;whiteSpace=wrap;html=1;" parent="K8BKGlM56tcpJbywQDiU-57" vertex="1"><mxGeometry x="40" y="200" width="1170" height="200" as="geometry"/></mxCell><mxCell id="K8BKGlM56tcpJbywQDiU-65" value="" style="edgeStyle=orthogonalEdgeStyle;rounded=0;orthogonalLoop=1;jettySize=auto;html=1;" parent="K8BKGlM56tcpJbywQDiU-58" source="K8BKGlM56tcpJbywQDiU-59" target="K8BKGlM56tcpJbywQDiU-64" edge="1"><mxGeometry relative="1" as="geometry"/></mxCell><mxCell id="K8BKGlM56tcpJbywQDiU-59" value="基本初始化" style="rounded=0;whiteSpace=wrap;html=1;" parent="K8BKGlM56tcpJbywQDiU-58" vertex="1"><mxGeometry x="27" y="130" width="120" height="60" as="geometry"/></mxCell><mxCell id="K8BKGlM56tcpJbywQDiU-60" value="code.2" style="shape=callout;whiteSpace=wrap;html=1;perimeter=calloutPerimeter;" parent="K8BKGlM56tcpJbywQDiU-58" vertex="1"><mxGeometry x="27" y="50" width="120" height="80" as="geometry"/></mxCell><mxCell id="K8BKGlM56tcpJbywQDiU-70" value="" style="edgeStyle=orthogonalEdgeStyle;rounded=0;orthogonalLoop=1;jettySize=auto;html=1;" parent="K8BKGlM56tcpJbywQDiU-58" source="K8BKGlM56tcpJbywQDiU-64" target="K8BKGlM56tcpJbywQDiU-69" edge="1"><mxGeometry relative="1" as="geometry"/></mxCell><mxCell id="K8BKGlM56tcpJbywQDiU-64" value="执行初始化方法,&lt;br&gt;为组件添加事件" style="rounded=0;whiteSpace=wrap;html=1;" parent="K8BKGlM56tcpJbywQDiU-58" vertex="1"><mxGeometry x="187" y="130" width="120" height="60" as="geometry"/></mxCell><mxCell id="K8BKGlM56tcpJbywQDiU-66" value="code.3" style="shape=callout;whiteSpace=wrap;html=1;perimeter=calloutPerimeter;" parent="K8BKGlM56tcpJbywQDiU-58" vertex="1"><mxGeometry x="187" y="50" width="120" height="80" as="geometry"/></mxCell><mxCell id="K8BKGlM56tcpJbywQDiU-69" value="以及改变物品等功能方法" style="rounded=0;whiteSpace=wrap;html=1;" parent="K8BKGlM56tcpJbywQDiU-58" vertex="1"><mxGeometry x="357" y="130" width="120" height="60" as="geometry"/></mxCell><mxCell id="K8BKGlM56tcpJbywQDiU-62" value="code.2" style="swimlane;whiteSpace=wrap;html=1;" parent="1" vertex="1" collapsed="1"><mxGeometry x="-747" y="-560" width="80" height="30" as="geometry"><mxRectangle x="-747" y="-370" width="530" height="174.5" as="alternateBounds"/></mxGeometry></mxCell><mxCell id="K8BKGlM56tcpJbywQDiU-63" value="&lt;div style=&quot;background-color: rgb(45, 42, 46);&quot;&gt;&lt;div style=&quot;text-align: left;&quot;&gt;&lt;font face=&quot;JetBrains Mono, monospace&quot; color=&quot;#ffffff&quot;&gt;&lt;span style=&quot;font-size: 13.0667px;&quot;&gt;&lt;br&gt;&lt;/span&gt;&lt;/font&gt;&lt;/div&gt;&lt;font face=&quot;JetBrains Mono, monospace&quot; color=&quot;#ffffff&quot;&gt;&lt;div style=&quot;text-align: left;&quot;&gt;&lt;font face=&quot;JetBrains Mono, monospace&quot; color=&quot;#ffffff&quot;&gt;&lt;span style=&quot;font-size: 9.8pt;&quot;&gt;self&lt;/span&gt;&lt;/font&gt;&lt;span style=&quot;color: rgb(147, 146, 147); font-size: 9.8pt;&quot;&gt;.&lt;/span&gt;&lt;font face=&quot;JetBrains Mono, monospace&quot; color=&quot;#ffffff&quot;&gt;&lt;span style=&quot;font-size: 9.8pt;&quot;&gt;mainWindow &lt;/span&gt;&lt;/font&gt;&lt;span style=&quot;color: rgb(255, 97, 136); font-size: 9.8pt;&quot;&gt;= &lt;/span&gt;&lt;span style=&quot;color: rgb(169, 220, 118); font-size: 9.8pt;&quot;&gt;QMainWindow&lt;/span&gt;&lt;span style=&quot;color: rgb(255, 216, 102); font-size: 9.8pt;&quot;&gt;()&lt;/span&gt;&lt;/div&gt;&lt;/font&gt;&lt;span style=&quot;color: rgb(255, 216, 102); font-family: &amp;quot;JetBrains Mono&amp;quot;, monospace; font-size: 9.8pt;&quot;&gt;&lt;div style=&quot;text-align: left;&quot;&gt;&lt;span style=&quot;color: rgb(242, 122, 66); font-size: 9.8pt; font-style: italic;&quot;&gt;self&lt;/span&gt;&lt;span style=&quot;color: rgb(147, 146, 147); font-size: 9.8pt;&quot;&gt;.&lt;/span&gt;&lt;font style=&quot;font-size: 12px;&quot; face=&quot;JetBrains Mono, monospace&quot; color=&quot;#ffffff&quot;&gt;&lt;span style=&quot;font-size: 9.8pt;&quot;&gt;ui &lt;/span&gt;&lt;/font&gt;&lt;span style=&quot;color: rgb(255, 97, 136); font-size: 9.8pt;&quot;&gt;= &lt;/span&gt;&lt;font style=&quot;font-size: 12px;&quot; face=&quot;JetBrains Mono, monospace&quot; color=&quot;#ffffff&quot;&gt;&lt;span style=&quot;font-size: 9.8pt;&quot;&gt;Desktop_Pet&lt;/span&gt;&lt;/font&gt;&lt;span style=&quot;color: rgb(147, 146, 147); font-size: 9.8pt;&quot;&gt;.&lt;/span&gt;&lt;span style=&quot;color: rgb(169, 220, 118); font-size: 9.8pt;&quot;&gt;Ui_MainWindow&lt;/span&gt;&lt;span style=&quot;font-size: 9.8pt;&quot;&gt;()  &lt;/span&gt;&lt;span style=&quot;color: rgb(180, 180, 180); font-size: 9.8pt; font-style: italic;&quot;&gt;# &lt;/span&gt;&lt;span style=&quot;color: rgb(180, 180, 180); font-family: 宋体, monospace; font-size: 9.8pt; font-style: italic;&quot;&gt;使用&lt;/span&gt;&lt;span style=&quot;color: rgb(180, 180, 180); font-size: 9.8pt; font-style: italic;&quot;&gt; PyQt5 Designer &lt;/span&gt;&lt;span style=&quot;color: rgb(180, 180, 180); font-family: 宋体, monospace; font-size: 9.8pt; font-style: italic;&quot;&gt;设计的&lt;/span&gt;&lt;span style=&quot;color: rgb(180, 180, 180); font-size: 9.8pt; font-style: italic;&quot;&gt; UI &lt;/span&gt;&lt;span style=&quot;color: rgb(180, 180, 180); font-family: 宋体, monospace; font-size: 9.8pt; font-style: italic;&quot;&gt;界面&lt;/span&gt;&lt;/div&gt;    &lt;/span&gt;&lt;span style=&quot;color: rgb(180, 180, 180); font-family: 宋体, monospace; font-size: 9.8pt; font-style: italic;&quot;&gt;&lt;div style=&quot;text-align: left;&quot;&gt;&lt;span style=&quot;color: rgb(242, 122, 66); font-family: &amp;quot;JetBrains Mono&amp;quot;, monospace; font-size: 9.8pt;&quot;&gt;self&lt;/span&gt;&lt;span style=&quot;color: rgb(147, 146, 147); font-family: &amp;quot;JetBrains Mono&amp;quot;, monospace; font-size: 9.8pt;&quot;&gt;.&lt;/span&gt;&lt;font style=&quot;font-size: 12px;&quot; face=&quot;JetBrains Mono, monospace&quot; color=&quot;#ffffff&quot;&gt;&lt;span style=&quot;font-size: 9.8pt;&quot;&gt;ui&lt;/span&gt;&lt;/font&gt;&lt;span style=&quot;color: rgb(147, 146, 147); font-family: &amp;quot;JetBrains Mono&amp;quot;, monospace; font-size: 9.8pt;&quot;&gt;.&lt;/span&gt;&lt;span style=&quot;color: rgb(169, 220, 118); font-family: &amp;quot;JetBrains Mono&amp;quot;, monospace; font-size: 9.8pt;&quot;&gt;setupUi&lt;/span&gt;&lt;span style=&quot;color: rgb(255, 216, 102); font-family: &amp;quot;JetBrains Mono&amp;quot;, monospace; font-size: 9.8pt;&quot;&gt;(&lt;/span&gt;&lt;span style=&quot;color: rgb(242, 122, 66); font-family: &amp;quot;JetBrains Mono&amp;quot;, monospace; font-size: 9.8pt;&quot;&gt;self&lt;/span&gt;&lt;span style=&quot;color: rgb(147, 146, 147); font-family: &amp;quot;JetBrains Mono&amp;quot;, monospace; font-size: 9.8pt;&quot;&gt;.&lt;/span&gt;&lt;font style=&quot;font-size: 12px;&quot; face=&quot;JetBrains Mono, monospace&quot; color=&quot;#ffffff&quot;&gt;&lt;span style=&quot;font-size: 9.8pt;&quot;&gt;mainWindow&lt;/span&gt;&lt;/font&gt;&lt;span style=&quot;color: rgb(255, 216, 102); font-family: &amp;quot;JetBrains Mono&amp;quot;, monospace; font-size: 9.8pt;&quot;&gt;)&lt;/span&gt;&lt;/div&gt;&lt;/span&gt;&lt;span style=&quot;color: rgb(255, 216, 102); font-family: &amp;quot;JetBrains Mono&amp;quot;, monospace; font-size: 9.8pt;&quot;&gt;&lt;div style=&quot;text-align: left;&quot;&gt;&lt;span style=&quot;color: rgb(242, 122, 66); font-size: 9.8pt; font-style: italic;&quot;&gt;self&lt;/span&gt;&lt;span style=&quot;color: rgb(147, 146, 147); font-size: 9.8pt;&quot;&gt;.&lt;/span&gt;&lt;span style=&quot;color: rgb(169, 220, 118); font-size: 9.8pt;&quot;&gt;main1&lt;/span&gt;&lt;span style=&quot;font-size: 9.8pt;&quot;&gt;()  &lt;/span&gt;&lt;span style=&quot;color: rgb(180, 180, 180); font-size: 9.8pt; font-style: italic;&quot;&gt;# &lt;/span&gt;&lt;span style=&quot;color: rgb(180, 180, 180); font-family: 宋体, monospace; font-size: 9.8pt; font-style: italic;&quot;&gt;绑定各个按钮的点击事件&lt;/span&gt;&lt;/div&gt;&lt;/span&gt;&lt;span style=&quot;color: rgb(180, 180, 180); font-family: 宋体, monospace; font-size: 9.8pt; font-style: italic;&quot;&gt;&lt;div style=&quot;text-align: left;&quot;&gt;&lt;span style=&quot;font-family: &amp;quot;JetBrains Mono&amp;quot;, monospace; font-size: 9.8pt;&quot;&gt;# threadB = threadPool.submit(deskTopPet.main1)&lt;/span&gt;&lt;/div&gt;    &lt;/span&gt;&lt;span style=&quot;color: rgb(180, 180, 180); font-family: &amp;quot;JetBrains Mono&amp;quot;, monospace; font-size: 9.8pt; font-style: italic;&quot;&gt;&lt;div style=&quot;text-align: left;&quot;&gt;&lt;span style=&quot;color: rgb(242, 122, 66); font-size: 9.8pt;&quot;&gt;self&lt;/span&gt;&lt;span style=&quot;color: rgb(147, 146, 147); font-size: 9.8pt;&quot;&gt;.&lt;/span&gt;&lt;font style=&quot;font-size: 12px;&quot; face=&quot;JetBrains Mono, monospace&quot; color=&quot;#ffffff&quot;&gt;&lt;span style=&quot;font-size: 9.8pt;&quot;&gt;mainWindow&lt;/span&gt;&lt;/font&gt;&lt;span style=&quot;color: rgb(147, 146, 147); font-size: 9.8pt;&quot;&gt;.&lt;/span&gt;&lt;span style=&quot;color: rgb(169, 220, 118); font-size: 9.8pt;&quot;&gt;show&lt;/span&gt;&lt;span style=&quot;color: rgb(255, 216, 102); font-size: 9.8pt;&quot;&gt;()&lt;/span&gt;&lt;/div&gt;    &lt;/span&gt;&lt;span style=&quot;color: rgb(255, 216, 102); font-family: &amp;quot;JetBrains Mono&amp;quot;, monospace; font-size: 9.8pt;&quot;&gt;&lt;div style=&quot;text-align: left;&quot;&gt;&lt;span style=&quot;color: rgb(242, 122, 66); font-size: 9.8pt; font-style: italic;&quot;&gt;self&lt;/span&gt;&lt;span style=&quot;color: rgb(147, 146, 147); font-size: 9.8pt;&quot;&gt;.&lt;/span&gt;&lt;font style=&quot;font-size: 12px;&quot; face=&quot;JetBrains Mono, monospace&quot; color=&quot;#ffffff&quot;&gt;&lt;span style=&quot;font-size: 9.8pt;&quot;&gt;ui&lt;/span&gt;&lt;/font&gt;&lt;span style=&quot;color: rgb(147, 146, 147); font-size: 9.8pt;&quot;&gt;.&lt;/span&gt;&lt;font style=&quot;font-size: 12px;&quot; face=&quot;JetBrains Mono, monospace&quot; color=&quot;#ffffff&quot;&gt;&lt;span style=&quot;font-size: 9.8pt;&quot;&gt;toolBox&lt;/span&gt;&lt;/font&gt;&lt;span style=&quot;color: rgb(147, 146, 147); font-size: 9.8pt;&quot;&gt;.&lt;/span&gt;&lt;font style=&quot;font-size: 12px;&quot; face=&quot;JetBrains Mono, monospace&quot; color=&quot;#ffffff&quot;&gt;&lt;span style=&quot;font-size: 9.8pt;&quot;&gt;currentChanged&lt;/span&gt;&lt;/font&gt;&lt;span style=&quot;color: rgb(147, 146, 147); font-size: 9.8pt;&quot;&gt;.&lt;/span&gt;&lt;span style=&quot;color: rgb(169, 220, 118); font-size: 9.8pt;&quot;&gt;connect&lt;/span&gt;&lt;span style=&quot;font-size: 9.8pt;&quot;&gt;(&lt;/span&gt;&lt;span style=&quot;color: rgb(242, 122, 66); font-size: 9.8pt; font-style: italic;&quot;&gt;self&lt;/span&gt;&lt;span style=&quot;color: rgb(147, 146, 147); font-size: 9.8pt;&quot;&gt;.&lt;/span&gt;&lt;font style=&quot;font-size: 12px;&quot; face=&quot;JetBrains Mono, monospace&quot; color=&quot;#ffffff&quot;&gt;&lt;span style=&quot;font-size: 9.8pt;&quot;&gt;main1&lt;/span&gt;&lt;/font&gt;&lt;span style=&quot;font-size: 9.8pt;&quot;&gt;)&lt;/span&gt;&lt;/div&gt;    &lt;/span&gt;&lt;span style=&quot;color: rgb(255, 216, 102); font-family: &amp;quot;JetBrains Mono&amp;quot;, monospace; font-size: 9.8pt;&quot;&gt;&lt;div style=&quot;text-align: left;&quot;&gt;&lt;span style=&quot;color: rgb(242, 122, 66); font-size: 9.8pt; font-style: italic;&quot;&gt;self&lt;/span&gt;&lt;span style=&quot;color: rgb(147, 146, 147); font-size: 9.8pt;&quot;&gt;.&lt;/span&gt;&lt;span style=&quot;color: rgb(169, 220, 118); font-size: 9.8pt;&quot;&gt;getNowPet&lt;/span&gt;&lt;span style=&quot;font-size: 9.8pt;&quot;&gt;()&lt;/span&gt;&lt;/div&gt;    &lt;/span&gt;&lt;/div&gt;" style="text;html=1;align=center;verticalAlign=middle;resizable=0;points=[];autosize=1;strokeColor=none;fillColor=none;" parent="K8BKGlM56tcpJbywQDiU-62" vertex="1"><mxGeometry y="24.5" width="500" height="150" as="geometry"/></mxCell><mxCell id="K8BKGlM56tcpJbywQDiU-33" value="code.1" style="swimlane;whiteSpace=wrap;html=1;" parent="1" vertex="1" collapsed="1"><mxGeometry x="-827" y="-560" width="80" height="30" as="geometry"><mxRectangle x="-827" y="-370" width="617" height="480" as="alternateBounds"/></mxGeometry></mxCell><mxCell id="K8BKGlM56tcpJbywQDiU-34" value="&lt;div style=&quot;background-color: rgb(45, 42, 46); color: rgb(255, 255, 255); font-family: &amp;quot;JetBrains Mono&amp;quot;, monospace; font-size: 9.8pt;&quot;&gt;# &lt;span style=&quot;color:#b4b4b4;font-style:italic;font-family:'宋体',monospace;&quot;&gt;创建一个退出操作&lt;br&gt;&lt;/span&gt;quit &lt;span style=&quot;color:#ff6188;&quot;&gt;= &lt;/span&gt;&lt;span style=&quot;color:#a9dc76;&quot;&gt;QAction&lt;/span&gt;&lt;span style=&quot;color:#ffd866;&quot;&gt;(&quot;&lt;/span&gt;&lt;span style=&quot;color:#ffd866;font-family:'宋体',monospace;&quot;&gt;退出&lt;/span&gt;&lt;span style=&quot;color:#ffd866;&quot;&gt;&quot;&lt;/span&gt;&lt;span style=&quot;color:#939293;&quot;&gt;, &lt;/span&gt;&lt;span style=&quot;color:#f27a42;font-style:italic;&quot;&gt;self&lt;/span&gt;&lt;span style=&quot;color:#939293;&quot;&gt;, &lt;/span&gt;&lt;span style=&quot;color:#f59762;font-style:italic;&quot;&gt;triggered&lt;/span&gt;&lt;span style=&quot;color:#ff6188;&quot;&gt;=&lt;/span&gt;Value&lt;span style=&quot;color:#939293;&quot;&gt;.&lt;/span&gt;app&lt;span style=&quot;color:#939293;&quot;&gt;.&lt;/span&gt;quit&lt;span style=&quot;color:#ffd866;&quot;&gt;)  &lt;/span&gt;&lt;span style=&quot;color:#b4b4b4;font-style:italic;&quot;&gt;# &lt;/span&gt;&lt;span style=&quot;color:#b4b4b4;font-style:italic;font-family:'宋体',monospace;&quot;&gt;创建退出操作&lt;br&gt;&lt;/span&gt;quit&lt;span style=&quot;color:#939293;&quot;&gt;.&lt;/span&gt;&lt;span style=&quot;color:#a9dc76;&quot;&gt;setIcon&lt;/span&gt;&lt;span style=&quot;color:#ffd866;&quot;&gt;(&lt;/span&gt;&lt;span style=&quot;color:#a9dc76;&quot;&gt;QIcon&lt;/span&gt;&lt;span style=&quot;color:#ff6188;&quot;&gt;(&lt;/span&gt;&lt;span style=&quot;color:#ffd866;&quot;&gt;&quot;img/icon.png&quot;&lt;/span&gt;&lt;span style=&quot;color:#ff6188;&quot;&gt;)&lt;/span&gt;&lt;span style=&quot;color:#ffd866;&quot;&gt;)&lt;br&gt;&lt;/span&gt;&lt;span style=&quot;color:#b4b4b4;font-style:italic;&quot;&gt;# &lt;/span&gt;&lt;span style=&quot;color:#b4b4b4;font-style:italic;font-family:'宋体',monospace;&quot;&gt;创建一个添加一个&lt;/span&gt;&lt;span style=&quot;color:#b4b4b4;font-style:italic;&quot;&gt;Miku&lt;/span&gt;&lt;span style=&quot;color:#b4b4b4;font-style:italic;font-family:'宋体',monospace;&quot;&gt;操作&lt;br&gt;&lt;/span&gt;addPet &lt;span style=&quot;color:#ff6188;&quot;&gt;= &lt;/span&gt;&lt;span style=&quot;color:#a9dc76;&quot;&gt;QAction&lt;/span&gt;&lt;span style=&quot;color:#ffd866;&quot;&gt;(&quot;&lt;/span&gt;&lt;span style=&quot;color:#ffd866;font-family:'宋体',monospace;&quot;&gt;添加一个&lt;/span&gt;&lt;span style=&quot;color:#ffd866;&quot;&gt;Miku&quot;&lt;/span&gt;&lt;span style=&quot;color:#939293;&quot;&gt;, &lt;/span&gt;&lt;span style=&quot;color:#f27a42;font-style:italic;&quot;&gt;self&lt;/span&gt;&lt;span style=&quot;color:#939293;&quot;&gt;, &lt;/span&gt;&lt;span style=&quot;color:#f59762;font-style:italic;&quot;&gt;triggered&lt;/span&gt;&lt;span style=&quot;color:#ff6188;&quot;&gt;=&lt;/span&gt;&lt;span style=&quot;color:#f27a42;font-style:italic;&quot;&gt;self&lt;/span&gt;&lt;span style=&quot;color:#939293;&quot;&gt;.&lt;/span&gt;addOnePet&lt;span style=&quot;color:#ffd866;&quot;&gt;)  &lt;/span&gt;&lt;span style=&quot;color:#b4b4b4;font-style:italic;&quot;&gt;# &lt;/span&gt;&lt;span style=&quot;color:#b4b4b4;font-style:italic;font-family:'宋体',monospace;&quot;&gt;创建添加宠物操作&lt;br&gt;&lt;/span&gt;addPet&lt;span style=&quot;color:#939293;&quot;&gt;.&lt;/span&gt;&lt;span style=&quot;color:#a9dc76;&quot;&gt;setIcon&lt;/span&gt;&lt;span style=&quot;color:#ffd866;&quot;&gt;(&lt;/span&gt;&lt;span style=&quot;color:#a9dc76;&quot;&gt;QIcon&lt;/span&gt;&lt;span style=&quot;color:#ff6188;&quot;&gt;(&lt;/span&gt;&lt;span style=&quot;color:#ffd866;&quot;&gt;&quot;img/icon.png&quot;&lt;/span&gt;&lt;span style=&quot;color:#ff6188;&quot;&gt;)&lt;/span&gt;&lt;span style=&quot;color:#ffd866;&quot;&gt;)&lt;br&gt;&lt;/span&gt;&lt;span style=&quot;color:#b4b4b4;font-style:italic;&quot;&gt;# &lt;/span&gt;&lt;span style=&quot;color:#b4b4b4;font-style:italic;font-family:'宋体',monospace;&quot;&gt;创建一个移除一个&lt;/span&gt;&lt;span style=&quot;color:#b4b4b4;font-style:italic;&quot;&gt;Miku&lt;/span&gt;&lt;span style=&quot;color:#b4b4b4;font-style:italic;font-family:'宋体',monospace;&quot;&gt;操作&lt;br&gt;&lt;/span&gt;removePet &lt;span style=&quot;color:#ff6188;&quot;&gt;= &lt;/span&gt;&lt;span style=&quot;color:#a9dc76;&quot;&gt;QAction&lt;/span&gt;&lt;span style=&quot;color:#ffd866;&quot;&gt;(&quot;&lt;/span&gt;&lt;span style=&quot;color:#ffd866;font-family:'宋体',monospace;&quot;&gt;移除一个&lt;/span&gt;&lt;span style=&quot;color:#ffd866;&quot;&gt;Miku&quot;&lt;/span&gt;&lt;span style=&quot;color:#939293;&quot;&gt;, &lt;/span&gt;&lt;span style=&quot;color:#f27a42;font-style:italic;&quot;&gt;self&lt;/span&gt;&lt;span style=&quot;color:#939293;&quot;&gt;, &lt;/span&gt;&lt;span style=&quot;color:#f59762;font-style:italic;&quot;&gt;triggered&lt;/span&gt;&lt;span style=&quot;color:#ff6188;&quot;&gt;=&lt;/span&gt;&lt;span style=&quot;color:#f27a42;font-style:italic;&quot;&gt;self&lt;/span&gt;&lt;span style=&quot;color:#939293;&quot;&gt;.&lt;/span&gt;delOnePet&lt;span style=&quot;color:#ffd866;&quot;&gt;)  &lt;/span&gt;&lt;span style=&quot;color:#b4b4b4;font-style:italic;&quot;&gt;# &lt;/span&gt;&lt;span style=&quot;color:#b4b4b4;font-style:italic;font-family:'宋体',monospace;&quot;&gt;创建移除宠物操作&lt;br&gt;&lt;/span&gt;removePet&lt;span style=&quot;color:#939293;&quot;&gt;.&lt;/span&gt;&lt;span style=&quot;color:#a9dc76;&quot;&gt;setIcon&lt;/span&gt;&lt;span style=&quot;color:#ffd866;&quot;&gt;(&lt;/span&gt;&lt;span style=&quot;color:#a9dc76;&quot;&gt;QIcon&lt;/span&gt;&lt;span style=&quot;color:#ff6188;&quot;&gt;(&lt;/span&gt;&lt;span style=&quot;color:#ffd866;&quot;&gt;&quot;img/icon.png&quot;&lt;/span&gt;&lt;span style=&quot;color:#ff6188;&quot;&gt;)&lt;/span&gt;&lt;span style=&quot;color:#ffd866;&quot;&gt;)&lt;br&gt;&lt;/span&gt;&lt;span style=&quot;color:#b4b4b4;font-style:italic;&quot;&gt;# &lt;/span&gt;&lt;span style=&quot;color:#b4b4b4;font-style:italic;font-family:'宋体',monospace;&quot;&gt;创建一个关于信息操作&lt;br&gt;&lt;/span&gt;about &lt;span style=&quot;color:#ff6188;&quot;&gt;= &lt;/span&gt;&lt;span style=&quot;color:#a9dc76;&quot;&gt;QAction&lt;/span&gt;&lt;span style=&quot;color:#ffd866;&quot;&gt;(&quot;About&quot;&lt;/span&gt;&lt;span style=&quot;color:#939293;&quot;&gt;, &lt;/span&gt;&lt;span style=&quot;color:#f27a42;font-style:italic;&quot;&gt;self&lt;/span&gt;&lt;span style=&quot;color:#939293;&quot;&gt;, &lt;/span&gt;&lt;span style=&quot;color:#f59762;font-style:italic;&quot;&gt;triggered&lt;/span&gt;&lt;span style=&quot;color:#ff6188;&quot;&gt;=&lt;/span&gt;&lt;span style=&quot;color:#f27a42;font-style:italic;&quot;&gt;self&lt;/span&gt;&lt;span style=&quot;color:#939293;&quot;&gt;.&lt;/span&gt;aboutInfo&lt;span style=&quot;color:#ffd866;&quot;&gt;)  &lt;/span&gt;&lt;span style=&quot;color:#b4b4b4;font-style:italic;&quot;&gt;# &lt;/span&gt;&lt;span style=&quot;color:#b4b4b4;font-style:italic;font-family:'宋体',monospace;&quot;&gt;创建关于信息操作&lt;br&gt;&lt;/span&gt;about&lt;span style=&quot;color:#939293;&quot;&gt;.&lt;/span&gt;&lt;span style=&quot;color:#a9dc76;&quot;&gt;setIcon&lt;/span&gt;&lt;span style=&quot;color:#ffd866;&quot;&gt;(&lt;/span&gt;&lt;span style=&quot;color:#a9dc76;&quot;&gt;QIcon&lt;/span&gt;&lt;span style=&quot;color:#ff6188;&quot;&gt;(&lt;/span&gt;&lt;span style=&quot;color:#ffd866;&quot;&gt;&quot;img/icon.png&quot;&lt;/span&gt;&lt;span style=&quot;color:#ff6188;&quot;&gt;)&lt;/span&gt;&lt;span style=&quot;color:#ffd866;&quot;&gt;)&lt;br&gt;&lt;/span&gt;&lt;span style=&quot;color:#b4b4b4;font-style:italic;&quot;&gt;# &lt;/span&gt;&lt;span style=&quot;color:#b4b4b4;font-style:italic;font-family:'宋体',monospace;&quot;&gt;创建一个显示屏幕操作&lt;br&gt;&lt;/span&gt;show&lt;span style=&quot;color:#ff6188;&quot;&gt;= &lt;/span&gt;&lt;span style=&quot;color:#a9dc76;&quot;&gt;QAction&lt;/span&gt;&lt;span style=&quot;color:#ffd866;&quot;&gt;(&quot;&lt;/span&gt;&lt;span style=&quot;color:#ffd866;font-family:'宋体',monospace;&quot;&gt;显示屏幕&lt;/span&gt;&lt;span style=&quot;color:#ffd866;&quot;&gt;&quot;&lt;/span&gt;&lt;span style=&quot;color:#939293;&quot;&gt;, &lt;/span&gt;&lt;span style=&quot;color:#f27a42;font-style:italic;&quot;&gt;self&lt;/span&gt;&lt;span style=&quot;color:#939293;&quot;&gt;, &lt;/span&gt;&lt;span style=&quot;color:#f59762;font-style:italic;&quot;&gt;toggled&lt;/span&gt;&lt;span style=&quot;color:#ff6188;&quot;&gt;=&lt;/span&gt;&lt;span style=&quot;color:#f27a42;font-style:italic;&quot;&gt;self&lt;/span&gt;&lt;span style=&quot;color:#939293;&quot;&gt;.&lt;/span&gt;desktopPet&lt;span style=&quot;color:#939293;&quot;&gt;.&lt;/span&gt;mainWindow&lt;span style=&quot;color:#939293;&quot;&gt;.&lt;/span&gt;show&lt;span style=&quot;color:#ffd866;&quot;&gt;)  &lt;/span&gt;&lt;span style=&quot;color:#b4b4b4;font-style:italic;&quot;&gt;# &lt;/span&gt;&lt;span style=&quot;color:#b4b4b4;font-style:italic;font-family:'宋体',monospace;&quot;&gt;创建显示屏幕操作&lt;/span&gt;&lt;span style=&quot;color:#b4b4b4;font-style:italic;&quot;&gt;&quot;)&lt;br&gt;&lt;/span&gt;show&lt;span style=&quot;color:#939293;&quot;&gt;.&lt;/span&gt;&lt;span style=&quot;color:#a9dc76;&quot;&gt;setIcon&lt;/span&gt;&lt;span style=&quot;color:#ffd866;&quot;&gt;(&lt;/span&gt;&lt;span style=&quot;color:#a9dc76;&quot;&gt;QIcon&lt;/span&gt;&lt;span style=&quot;color:#ff6188;&quot;&gt;(&lt;/span&gt;&lt;span style=&quot;color:#ffd866;&quot;&gt;&quot;img/icon.png&quot;&lt;/span&gt;&lt;span style=&quot;color:#ff6188;&quot;&gt;)&lt;/span&gt;&lt;span style=&quot;color:#ffd866;&quot;&gt;)&lt;br&gt;&lt;/span&gt;&lt;span style=&quot;color:#b4b4b4;font-style:italic;&quot;&gt;# &lt;/span&gt;&lt;span style=&quot;color:#b4b4b4;font-style:italic;font-family:'宋体',monospace;&quot;&gt;创建一个隐藏屏幕操作&lt;br&gt;&lt;/span&gt;hide&lt;span style=&quot;color:#ff6188;&quot;&gt;= &lt;/span&gt;&lt;span style=&quot;color:#a9dc76;&quot;&gt;QAction&lt;/span&gt;&lt;span style=&quot;color:#ffd866;&quot;&gt;(&quot;&lt;/span&gt;&lt;span style=&quot;color:#ffd866;font-family:'宋体',monospace;&quot;&gt;隐藏屏幕&lt;/span&gt;&lt;span style=&quot;color:#ffd866;&quot;&gt;&quot;&lt;/span&gt;&lt;span style=&quot;color:#939293;&quot;&gt;, &lt;/span&gt;&lt;span style=&quot;color:#f27a42;font-style:italic;&quot;&gt;self&lt;/span&gt;&lt;span style=&quot;color:#939293;&quot;&gt;, &lt;/span&gt;&lt;span style=&quot;color:#f59762;font-style:italic;&quot;&gt;toggled&lt;/span&gt;&lt;span style=&quot;color:#ff6188;&quot;&gt;=&lt;/span&gt;&lt;span style=&quot;color:#f27a42;font-style:italic;&quot;&gt;self&lt;/span&gt;&lt;span style=&quot;color:#939293;&quot;&gt;.&lt;/span&gt;desktopPet&lt;span style=&quot;color:#939293;&quot;&gt;.&lt;/span&gt;mainWindow&lt;span style=&quot;color:#939293;&quot;&gt;.&lt;/span&gt;hide&lt;span style=&quot;color:#ffd866;&quot;&gt;)  &lt;/span&gt;&lt;span style=&quot;color:#b4b4b4;font-style:italic;&quot;&gt;# &lt;/span&gt;&lt;span style=&quot;color:#b4b4b4;font-style:italic;font-family:'宋体',monospace;&quot;&gt;创建隐藏屏幕操作&lt;/span&gt;&lt;span style=&quot;color:#b4b4b4;font-style:italic;&quot;&gt;&quot;)&lt;br&gt;&lt;/span&gt;hide&lt;span style=&quot;color:#939293;&quot;&gt;.&lt;/span&gt;&lt;span style=&quot;color:#a9dc76;&quot;&gt;setIcon&lt;/span&gt;&lt;span style=&quot;color:#ffd866;&quot;&gt;(&lt;/span&gt;&lt;span style=&quot;color:#a9dc76;&quot;&gt;QIcon&lt;/span&gt;&lt;span style=&quot;color:#ff6188;&quot;&gt;(&lt;/span&gt;&lt;span style=&quot;color:#ffd866;&quot;&gt;&quot;img/icon.png&quot;&lt;/span&gt;&lt;span style=&quot;color:#ff6188;&quot;&gt;)&lt;/span&gt;&lt;span style=&quot;color:#ffd866;&quot;&gt;)&lt;br&gt;&lt;/span&gt;&lt;span style=&quot;color:#b4b4b4;font-style:italic;&quot;&gt;# &lt;/span&gt;&lt;span style=&quot;color:#b4b4b4;font-style:italic;font-family:'宋体',monospace;&quot;&gt;创建一个系统托盘菜单&lt;br&gt;&lt;/span&gt;&lt;span style=&quot;color:#f27a42;font-style:italic;&quot;&gt;self&lt;/span&gt;&lt;span style=&quot;color:#939293;&quot;&gt;.&lt;/span&gt;trayIconMenu &lt;span style=&quot;color:#ff6188;&quot;&gt;= &lt;/span&gt;&lt;span style=&quot;color:#a9dc76;&quot;&gt;QMenu&lt;/span&gt;&lt;span style=&quot;color:#ffd866;&quot;&gt;(&lt;/span&gt;&lt;span style=&quot;color:#f27a42;font-style:italic;&quot;&gt;self&lt;/span&gt;&lt;span style=&quot;color:#ffd866;&quot;&gt;)  &lt;/span&gt;&lt;span style=&quot;color:#b4b4b4;font-style:italic;&quot;&gt;# &lt;/span&gt;&lt;span style=&quot;color:#b4b4b4;font-style:italic;font-family:'宋体',monospace;&quot;&gt;创建系统托盘菜单&lt;br&gt;&lt;/span&gt;&lt;span style=&quot;color:#f27a42;font-style:italic;&quot;&gt;self&lt;/span&gt;&lt;span style=&quot;color:#939293;&quot;&gt;.&lt;/span&gt;trayIconMenu&lt;span style=&quot;color:#939293;&quot;&gt;.&lt;/span&gt;&lt;span style=&quot;color:#a9dc76;&quot;&gt;addAction&lt;/span&gt;&lt;span style=&quot;color:#ffd866;&quot;&gt;(&lt;/span&gt;addPet&lt;span style=&quot;color:#ffd866;&quot;&gt;)  &lt;/span&gt;&lt;span style=&quot;color:#b4b4b4;font-style:italic;&quot;&gt;# &lt;/span&gt;&lt;span style=&quot;color:#b4b4b4;font-style:italic;font-family:'宋体',monospace;&quot;&gt;将添加宠物操作添加到菜单中&lt;br&gt;&lt;/span&gt;&lt;span style=&quot;color:#f27a42;font-style:italic;&quot;&gt;self&lt;/span&gt;&lt;span style=&quot;color:#939293;&quot;&gt;.&lt;/span&gt;trayIconMenu&lt;span style=&quot;color:#939293;&quot;&gt;.&lt;/span&gt;&lt;span style=&quot;color:#a9dc76;&quot;&gt;addAction&lt;/span&gt;&lt;span style=&quot;color:#ffd866;&quot;&gt;(&lt;/span&gt;removePet&lt;span style=&quot;color:#ffd866;&quot;&gt;)  &lt;/span&gt;&lt;span style=&quot;color:#b4b4b4;font-style:italic;&quot;&gt;# &lt;/span&gt;&lt;span style=&quot;color:#b4b4b4;font-style:italic;font-family:'宋体',monospace;&quot;&gt;将移除宠物操作添加到菜单中&lt;br&gt;&lt;/span&gt;&lt;span style=&quot;color:#f27a42;font-style:italic;&quot;&gt;self&lt;/span&gt;&lt;span style=&quot;color:#939293;&quot;&gt;.&lt;/span&gt;trayIconMenu&lt;span style=&quot;color:#939293;&quot;&gt;.&lt;/span&gt;&lt;span style=&quot;color:#a9dc76;&quot;&gt;addAction&lt;/span&gt;&lt;span style=&quot;color:#ffd866;&quot;&gt;(&lt;/span&gt;about&lt;span style=&quot;color:#ffd866;&quot;&gt;)  &lt;/span&gt;&lt;span style=&quot;color:#b4b4b4;font-style:italic;&quot;&gt;# &lt;/span&gt;&lt;span style=&quot;color:#b4b4b4;font-style:italic;font-family:'宋体',monospace;&quot;&gt;将关于信息操作添加到菜单中&lt;br&gt;&lt;/span&gt;&lt;span style=&quot;color:#f27a42;font-style:italic;&quot;&gt;self&lt;/span&gt;&lt;span style=&quot;color:#939293;&quot;&gt;.&lt;/span&gt;trayIconMenu&lt;span style=&quot;color:#939293;&quot;&gt;.&lt;/span&gt;&lt;span style=&quot;color:#a9dc76;&quot;&gt;addAction&lt;/span&gt;&lt;span style=&quot;color:#ffd866;&quot;&gt;(&lt;/span&gt;quit&lt;span style=&quot;color:#ffd866;&quot;&gt;)  &lt;/span&gt;&lt;span style=&quot;color:#b4b4b4;font-style:italic;&quot;&gt;# &lt;/span&gt;&lt;span style=&quot;color:#b4b4b4;font-style:italic;font-family:'宋体',monospace;&quot;&gt;将退出操作添加到菜单中&lt;br&gt;&lt;/span&gt;&lt;span style=&quot;color:#f27a42;font-style:italic;&quot;&gt;self&lt;/span&gt;&lt;span style=&quot;color:#939293;&quot;&gt;.&lt;/span&gt;trayIcon &lt;span style=&quot;color:#ff6188;&quot;&gt;= &lt;/span&gt;&lt;span style=&quot;color:#a9dc76;&quot;&gt;QSystemTrayIcon&lt;/span&gt;&lt;span style=&quot;color:#ffd866;&quot;&gt;(&lt;/span&gt;&lt;span style=&quot;color:#f27a42;font-style:italic;&quot;&gt;self&lt;/span&gt;&lt;span style=&quot;color:#ffd866;&quot;&gt;)  &lt;/span&gt;&lt;span style=&quot;color:#b4b4b4;font-style:italic;&quot;&gt;# &lt;/span&gt;&lt;span style=&quot;color:#b4b4b4;font-style:italic;font-family:'宋体',monospace;&quot;&gt;创建系统托盘图标实例&lt;br&gt;&lt;/span&gt;&lt;span style=&quot;color:#f27a42;font-style:italic;&quot;&gt;self&lt;/span&gt;&lt;span style=&quot;color:#939293;&quot;&gt;.&lt;/span&gt;trayIcon&lt;span style=&quot;color:#939293;&quot;&gt;.&lt;/span&gt;&lt;span style=&quot;color:#a9dc76;&quot;&gt;setIcon&lt;/span&gt;&lt;span style=&quot;color:#ffd866;&quot;&gt;(&lt;/span&gt;&lt;span style=&quot;color:#a9dc76;&quot;&gt;QIcon&lt;/span&gt;&lt;span style=&quot;color:#ff6188;&quot;&gt;(&lt;/span&gt;&lt;span style=&quot;color:#ffd866;&quot;&gt;&quot;resources/image/icon.png&quot;&lt;/span&gt;&lt;span style=&quot;color:#ff6188;&quot;&gt;)&lt;/span&gt;&lt;span style=&quot;color:#ffd866;&quot;&gt;)  &lt;/span&gt;&lt;span style=&quot;color:#b4b4b4;font-style:italic;&quot;&gt;# &lt;/span&gt;&lt;span style=&quot;color:#b4b4b4;font-style:italic;font-family:'宋体',monospace;&quot;&gt;设置托盘图标&lt;br&gt;&lt;/span&gt;&lt;span style=&quot;color:#f27a42;font-style:italic;&quot;&gt;self&lt;/span&gt;&lt;span style=&quot;color:#939293;&quot;&gt;.&lt;/span&gt;trayIcon&lt;span style=&quot;color:#939293;&quot;&gt;.&lt;/span&gt;&lt;span style=&quot;color:#a9dc76;&quot;&gt;setContextMenu&lt;/span&gt;&lt;span style=&quot;color:#ffd866;&quot;&gt;(&lt;/span&gt;&lt;span style=&quot;color:#f27a42;font-style:italic;&quot;&gt;self&lt;/span&gt;&lt;span style=&quot;color:#939293;&quot;&gt;.&lt;/span&gt;trayIconMenu&lt;span style=&quot;color:#ffd866;&quot;&gt;)  &lt;/span&gt;&lt;span style=&quot;color:#b4b4b4;font-style:italic;&quot;&gt;# &lt;/span&gt;&lt;span style=&quot;color:#b4b4b4;font-style:italic;font-family:'宋体',monospace;&quot;&gt;设置托盘图标菜单&lt;br&gt;&lt;/span&gt;&lt;span style=&quot;color:#f27a42;font-style:italic;&quot;&gt;self&lt;/span&gt;&lt;span style=&quot;color:#939293;&quot;&gt;.&lt;/span&gt;trayIcon&lt;span style=&quot;color:#939293;&quot;&gt;.&lt;/span&gt;&lt;span style=&quot;color:#a9dc76;&quot;&gt;show&lt;/span&gt;&lt;span style=&quot;color:#ffd866;&quot;&gt;()  &lt;/span&gt;&lt;span style=&quot;color:#b4b4b4;font-style:italic;&quot;&gt;# &lt;/span&gt;&lt;span style=&quot;color:#b4b4b4;font-style:italic;font-family:'宋体',monospace;&quot;&gt;显示系统托盘图标&lt;/span&gt;&lt;/div&gt;" style="text;html=1;align=left;verticalAlign=middle;resizable=0;points=[];autosize=1;strokeColor=none;fillColor=none;" parent="K8BKGlM56tcpJbywQDiU-33" vertex="1"><mxGeometry y="30" width="620" height="450" as="geometry"/></mxCell><mxCell id="K8BKGlM56tcpJbywQDiU-67" value="code.3" style="swimlane;whiteSpace=wrap;html=1;" parent="1" vertex="1" collapsed="1"><mxGeometry x="-667" y="-560" width="80" height="30" as="geometry"><mxRectangle x="-710" y="-450" width="790" height="480" as="alternateBounds"/></mxGeometry></mxCell><mxCell id="K8BKGlM56tcpJbywQDiU-68" value="&lt;div style=&quot;background-color: rgb(45, 42, 46); color: rgb(255, 255, 255); font-family: &amp;quot;JetBrains Mono&amp;quot;, monospace; font-size: 9.8pt;&quot;&gt;&lt;div style=&quot;font-size: 9.8pt;&quot;&gt;&lt;br&gt;&lt;span style=&quot;color:#ff6188;&quot;&gt;&lt;br&gt;&lt;/span&gt;&lt;span style=&quot;color:#ff6188;&quot;&gt;    &lt;/span&gt;&lt;span style=&quot;color:#b4b4b4;font-style:italic;&quot;&gt;&quot;&quot;&quot;&lt;br&gt;&lt;/span&gt;&lt;span style=&quot;color:#b4b4b4;font-style:italic;&quot;&gt;    &lt;/span&gt;&lt;span style=&quot;color:#b4b4b4;font-style:italic;font-family:'宋体',monospace;&quot;&gt;绑定各个按钮的点击事件&lt;/span&gt;&lt;span style=&quot;color:#b4b4b4;font-style:italic;&quot;&gt;&lt;br&gt;&lt;/span&gt;&lt;span style=&quot;color:#b4b4b4;font-style:italic;&quot;&gt;    &quot;&quot;&quot;&lt;br&gt;&lt;/span&gt;&lt;span style=&quot;color:#b4b4b4;font-style:italic;&quot;&gt;    &lt;/span&gt;&lt;span style=&quot;color:#78dce8;font-style:italic;&quot;&gt;print&lt;/span&gt;&lt;span style=&quot;color:#ffd866;&quot;&gt;(&quot;init&quot;)&lt;br&gt;&lt;/span&gt;&lt;span style=&quot;color:#ffd866;&quot;&gt;    &lt;/span&gt;&lt;span style=&quot;color:#f27a42;font-style:italic;&quot;&gt;self&lt;/span&gt;&lt;span style=&quot;color:#939293;&quot;&gt;.&lt;/span&gt;&lt;span style=&quot;color:#a9dc76;&quot;&gt;getNowPet&lt;/span&gt;&lt;span style=&quot;color:#ffd866;&quot;&gt;()&lt;br&gt;&lt;/span&gt;&lt;span style=&quot;color:#ffd866;&quot;&gt;    &lt;/span&gt;&lt;span style=&quot;color:#f27a42;font-style:italic;&quot;&gt;self&lt;/span&gt;&lt;span style=&quot;color:#939293;&quot;&gt;.&lt;/span&gt;ui&lt;span style=&quot;color:#939293;&quot;&gt;.&lt;/span&gt;apple&lt;span style=&quot;color:#939293;&quot;&gt;.&lt;/span&gt;clicked&lt;span style=&quot;color:#939293;&quot;&gt;.&lt;/span&gt;&lt;span style=&quot;color:#a9dc76;&quot;&gt;connect&lt;/span&gt;&lt;span style=&quot;color:#ffd866;&quot;&gt;(&lt;/span&gt;&lt;span style=&quot;color:#ff6188;font-style:italic;&quot;&gt;lambda&lt;/span&gt;&lt;span style=&quot;color:#ff6188;&quot;&gt;: &lt;/span&gt;&lt;span style=&quot;color:#f27a42;font-style:italic;&quot;&gt;self&lt;/span&gt;&lt;span style=&quot;color:#939293;&quot;&gt;.&lt;/span&gt;&lt;span style=&quot;color:#a9dc76;&quot;&gt;itemButtonClicked&lt;/span&gt;&lt;span style=&quot;color:#ff6188;&quot;&gt;(&lt;/span&gt;&lt;span style=&quot;color:#ffd866;&quot;&gt;&quot;apple.png&quot;&lt;/span&gt;&lt;span style=&quot;color:#ff6188;&quot;&gt;)&lt;/span&gt;&lt;span style=&quot;color:#ffd866;&quot;&gt;) &lt;/span&gt;&lt;span style=&quot;color:#b4b4b4;font-style:italic;&quot;&gt;#&lt;br&gt;&lt;/span&gt;&lt;span style=&quot;color:#b4b4b4;font-style:italic;&quot;&gt;    &lt;/span&gt;&lt;span style=&quot;color:#f27a42;font-style:italic;&quot;&gt;self&lt;/span&gt;&lt;span style=&quot;color:#939293;&quot;&gt;.&lt;/span&gt;ui&lt;span style=&quot;color:#939293;&quot;&gt;.&lt;/span&gt;pickaxe&lt;span style=&quot;color:#939293;&quot;&gt;.&lt;/span&gt;clicked&lt;span style=&quot;color:#939293;&quot;&gt;.&lt;/span&gt;&lt;span style=&quot;color:#a9dc76;&quot;&gt;connect&lt;/span&gt;&lt;span style=&quot;color:#ffd866;&quot;&gt;(&lt;/span&gt;&lt;span style=&quot;color:#ff6188;font-style:italic;&quot;&gt;lambda&lt;/span&gt;&lt;span style=&quot;color:#ff6188;&quot;&gt;: &lt;/span&gt;&lt;span style=&quot;color:#f27a42;font-style:italic;&quot;&gt;self&lt;/span&gt;&lt;span style=&quot;color:#939293;&quot;&gt;.&lt;/span&gt;&lt;span style=&quot;color:#a9dc76;&quot;&gt;itemButtonClicked&lt;/span&gt;&lt;span style=&quot;color:#ff6188;&quot;&gt;(&lt;/span&gt;&lt;span style=&quot;color:#ffd866;&quot;&gt;&quot;diamond_pickaxe.png&quot;&lt;/span&gt;&lt;span style=&quot;color:#ff6188;&quot;&gt;)&lt;/span&gt;&lt;span style=&quot;color:#ffd866;&quot;&gt;) &lt;/span&gt;&lt;span style=&quot;color:#b4b4b4;font-style:italic;&quot;&gt;#&lt;br&gt;&lt;/span&gt;&lt;span style=&quot;color:#b4b4b4;font-style:italic;&quot;&gt;    &lt;/span&gt;&lt;span style=&quot;color:#f27a42;font-style:italic;&quot;&gt;self&lt;/span&gt;&lt;span style=&quot;color:#939293;&quot;&gt;.&lt;/span&gt;ui&lt;span style=&quot;color:#939293;&quot;&gt;.&lt;/span&gt;compass&lt;span style=&quot;color:#939293;&quot;&gt;.&lt;/span&gt;clicked&lt;span style=&quot;color:#939293;&quot;&gt;.&lt;/span&gt;&lt;span style=&quot;color:#a9dc76;&quot;&gt;connect&lt;/span&gt;&lt;span style=&quot;color:#ffd866;&quot;&gt;(&lt;/span&gt;&lt;span style=&quot;color:#ff6188;font-style:italic;&quot;&gt;lambda&lt;/span&gt;&lt;span style=&quot;color:#ff6188;&quot;&gt;: &lt;/span&gt;&lt;span style=&quot;color:#f27a42;font-style:italic;&quot;&gt;self&lt;/span&gt;&lt;span style=&quot;color:#939293;&quot;&gt;.&lt;/span&gt;&lt;span style=&quot;color:#a9dc76;&quot;&gt;itemButtonClicked&lt;/span&gt;&lt;span style=&quot;color:#ff6188;&quot;&gt;(&lt;/span&gt;&lt;span style=&quot;color:#ffd866;&quot;&gt;&quot;compass_18.png&quot;&lt;/span&gt;&lt;span style=&quot;color:#ff6188;&quot;&gt;)&lt;/span&gt;&lt;span style=&quot;color:#ffd866;&quot;&gt;) &lt;/span&gt;&lt;span style=&quot;color:#b4b4b4;font-style:italic;&quot;&gt;#&lt;br&gt;&lt;/span&gt;&lt;span style=&quot;color:#b4b4b4;font-style:italic;&quot;&gt;    &lt;/span&gt;&lt;span style=&quot;color:#f27a42;font-style:italic;&quot;&gt;self&lt;/span&gt;&lt;span style=&quot;color:#939293;&quot;&gt;.&lt;/span&gt;ui&lt;span style=&quot;color:#939293;&quot;&gt;.&lt;/span&gt;bread&lt;span style=&quot;color:#939293;&quot;&gt;.&lt;/span&gt;clicked&lt;span style=&quot;color:#939293;&quot;&gt;.&lt;/span&gt;&lt;span style=&quot;color:#a9dc76;&quot;&gt;connect&lt;/span&gt;&lt;span style=&quot;color:#ffd866;&quot;&gt;(&lt;/span&gt;&lt;span style=&quot;color:#ff6188;font-style:italic;&quot;&gt;lambda&lt;/span&gt;&lt;span style=&quot;color:#ff6188;&quot;&gt;: &lt;/span&gt;&lt;span style=&quot;color:#f27a42;font-style:italic;&quot;&gt;self&lt;/span&gt;&lt;span style=&quot;color:#939293;&quot;&gt;.&lt;/span&gt;&lt;span style=&quot;color:#a9dc76;&quot;&gt;itemButtonClicked&lt;/span&gt;&lt;span style=&quot;color:#ff6188;&quot;&gt;(&lt;/span&gt;&lt;span style=&quot;color:#ffd866;&quot;&gt;&quot;bread.png&quot;&lt;/span&gt;&lt;span style=&quot;color:#ff6188;&quot;&gt;)&lt;/span&gt;&lt;span style=&quot;color:#ffd866;&quot;&gt;) &lt;/span&gt;&lt;span style=&quot;color:#b4b4b4;font-style:italic;&quot;&gt;#&lt;br&gt;&lt;/span&gt;&lt;span style=&quot;color:#b4b4b4;font-style:italic;&quot;&gt;    &lt;/span&gt;&lt;span style=&quot;color:#f27a42;font-style:italic;&quot;&gt;self&lt;/span&gt;&lt;span style=&quot;color:#939293;&quot;&gt;.&lt;/span&gt;ui&lt;span style=&quot;color:#939293;&quot;&gt;.&lt;/span&gt;random&lt;span style=&quot;color:#939293;&quot;&gt;.&lt;/span&gt;clicked&lt;span style=&quot;color:#939293;&quot;&gt;.&lt;/span&gt;&lt;span style=&quot;color:#a9dc76;&quot;&gt;connect&lt;/span&gt;&lt;span style=&quot;color:#ffd866;&quot;&gt;(&lt;/span&gt;&lt;span style=&quot;color:#ff6188;font-style:italic;&quot;&gt;lambda&lt;/span&gt;&lt;span style=&quot;color:#ff6188;&quot;&gt;: &lt;/span&gt;&lt;span style=&quot;color:#f27a42;font-style:italic;&quot;&gt;self&lt;/span&gt;&lt;span style=&quot;color:#939293;&quot;&gt;.&lt;/span&gt;&lt;span style=&quot;color:#a9dc76;&quot;&gt;itemButtonClicked&lt;/span&gt;&lt;span style=&quot;color:#ff6188;&quot;&gt;(&lt;/span&gt;&lt;span style=&quot;color:#f27a42;font-style:italic;&quot;&gt;self&lt;/span&gt;&lt;span style=&quot;color:#939293;&quot;&gt;.&lt;/span&gt;&lt;span style=&quot;color:#a9dc76;&quot;&gt;randomItem&lt;/span&gt;&lt;span style=&quot;color:#ab9df2;&quot;&gt;()&lt;/span&gt;&lt;span style=&quot;color:#ff6188;&quot;&gt;)&lt;/span&gt;&lt;span style=&quot;color:#ffd866;&quot;&gt;) &lt;/span&gt;&lt;span style=&quot;color:#b4b4b4;font-style:italic;&quot;&gt;#&lt;br&gt;&lt;/span&gt;&lt;span style=&quot;color:#b4b4b4;font-style:italic;&quot;&gt;    &lt;/span&gt;&lt;span style=&quot;color:#f27a42;font-style:italic;&quot;&gt;self&lt;/span&gt;&lt;span style=&quot;color:#939293;&quot;&gt;.&lt;/span&gt;ui&lt;span style=&quot;color:#939293;&quot;&gt;.&lt;/span&gt;moveToHome_Button&lt;span style=&quot;color:#939293;&quot;&gt;.&lt;/span&gt;clicked&lt;span style=&quot;color:#939293;&quot;&gt;.&lt;/span&gt;&lt;span style=&quot;color:#a9dc76;&quot;&gt;connect&lt;/span&gt;&lt;span style=&quot;color:#ffd866;&quot;&gt;(&lt;/span&gt;&lt;span style=&quot;color:#ff6188;font-style:italic;&quot;&gt;lambda&lt;/span&gt;&lt;span style=&quot;color:#ff6188;&quot;&gt;: &lt;/span&gt;&lt;span style=&quot;color:#f27a42;font-style:italic;&quot;&gt;self&lt;/span&gt;&lt;span style=&quot;color:#939293;&quot;&gt;.&lt;/span&gt;pet&lt;span style=&quot;color:#939293;&quot;&gt;.&lt;/span&gt;&lt;span style=&quot;color:#a9dc76;&quot;&gt;moveMainWindow2&lt;/span&gt;&lt;span style=&quot;color:#ff6188;&quot;&gt;(&lt;/span&gt;&lt;span style=&quot;color:#f27a42;font-style:italic;&quot;&gt;self&lt;/span&gt;&lt;span style=&quot;color:#939293;&quot;&gt;.&lt;/span&gt;pet&lt;span style=&quot;color:#939293;&quot;&gt;.&lt;/span&gt;home&lt;span style=&quot;color:#ff6188;&quot;&gt;)&lt;/span&gt;&lt;span style=&quot;color:#ffd866;&quot;&gt;) &lt;/span&gt;&lt;span style=&quot;color:#b4b4b4;font-style:italic;&quot;&gt;#&lt;br&gt;&lt;/span&gt;&lt;span style=&quot;color:#b4b4b4;font-style:italic;&quot;&gt;    &lt;/span&gt;&lt;span style=&quot;color:#f27a42;font-style:italic;&quot;&gt;self&lt;/span&gt;&lt;span style=&quot;color:#939293;&quot;&gt;.&lt;/span&gt;ui&lt;span style=&quot;color:#939293;&quot;&gt;.&lt;/span&gt;moveToRandomPos_button&lt;span style=&quot;color:#939293;&quot;&gt;.&lt;/span&gt;clicked&lt;span style=&quot;color:#939293;&quot;&gt;.&lt;/span&gt;&lt;span style=&quot;color:#a9dc76;&quot;&gt;connect&lt;/span&gt;&lt;span style=&quot;color:#ffd866;&quot;&gt;(&lt;/span&gt;&lt;span style=&quot;color:#ff6188;font-style:italic;&quot;&gt;lambda&lt;/span&gt;&lt;span style=&quot;color:#ff6188;&quot;&gt;: &lt;/span&gt;&lt;span style=&quot;color:#f27a42;font-style:italic;&quot;&gt;self&lt;/span&gt;&lt;span style=&quot;color:#939293;&quot;&gt;.&lt;/span&gt;pet&lt;span style=&quot;color:#939293;&quot;&gt;.&lt;/span&gt;&lt;span style=&quot;color:#a9dc76;&quot;&gt;moveMainWindow2&lt;/span&gt;&lt;span style=&quot;color:#ff6188;&quot;&gt;(&lt;br&gt;&lt;/span&gt;&lt;span style=&quot;color:#ff6188;&quot;&gt;        &lt;/span&gt;&lt;span style=&quot;color:#b4b4b4;font-style:italic;&quot;&gt;# &lt;/span&gt;&lt;span style=&quot;color:#b4b4b4;font-style:italic;font-family:'宋体',monospace;&quot;&gt;随机移动位置&lt;br&gt;&lt;/span&gt;&lt;span style=&quot;color:#b4b4b4;font-style:italic;font-family:'宋体',monospace;&quot;&gt;        &lt;/span&gt;&lt;span style=&quot;color:#f27a42;font-style:italic;&quot;&gt;self&lt;/span&gt;&lt;span style=&quot;color:#939293;&quot;&gt;.&lt;/span&gt;pet&lt;span style=&quot;color:#939293;&quot;&gt;.&lt;/span&gt;&lt;span style=&quot;color:#a9dc76;&quot;&gt;pos&lt;/span&gt;&lt;span style=&quot;color:#ab9df2;&quot;&gt;(&lt;/span&gt;random&lt;span style=&quot;color:#939293;&quot;&gt;.&lt;/span&gt;&lt;span style=&quot;color:#a9dc76;&quot;&gt;randint&lt;/span&gt;&lt;span style=&quot;color:#78dce8;&quot;&gt;(&lt;/span&gt;&lt;span style=&quot;color:#ab9df2;&quot;&gt;0&lt;/span&gt;&lt;span style=&quot;color:#939293;&quot;&gt;, &lt;/span&gt;&lt;span style=&quot;color:#78dce8;font-style:italic;&quot;&gt;int&lt;/span&gt;&lt;span style=&quot;color:#a9dc76;&quot;&gt;(&lt;/span&gt;Value&lt;span style=&quot;color:#939293;&quot;&gt;.&lt;/span&gt;width&lt;span style=&quot;color:#a9dc76;&quot;&gt;)&lt;/span&gt;&lt;span style=&quot;color:#78dce8;&quot;&gt;)&lt;/span&gt;&lt;span style=&quot;color:#939293;&quot;&gt;, &lt;/span&gt;random&lt;span style=&quot;color:#939293;&quot;&gt;.&lt;/span&gt;&lt;span style=&quot;color:#a9dc76;&quot;&gt;randint&lt;/span&gt;&lt;span style=&quot;color:#78dce8;&quot;&gt;(&lt;/span&gt;&lt;span style=&quot;color:#ab9df2;&quot;&gt;0&lt;/span&gt;&lt;span style=&quot;color:#939293;&quot;&gt;, &lt;/span&gt;&lt;span style=&quot;color:#78dce8;font-style:italic;&quot;&gt;int&lt;/span&gt;&lt;span style=&quot;color:#a9dc76;&quot;&gt;(&lt;/span&gt;Value&lt;span style=&quot;color:#939293;&quot;&gt;.&lt;/span&gt;height&lt;span style=&quot;color:#a9dc76;&quot;&gt;)&lt;/span&gt;&lt;span style=&quot;color:#78dce8;&quot;&gt;)&lt;/span&gt;&lt;span style=&quot;color:#ab9df2;&quot;&gt;)&lt;/span&gt;&lt;span style=&quot;color:#ff6188;&quot;&gt;)&lt;/span&gt;&lt;span style=&quot;color:#ffd866;&quot;&gt;)&lt;br&gt;&lt;/span&gt;&lt;span style=&quot;color:#ffd866;&quot;&gt;    &lt;/span&gt;&lt;span style=&quot;color:#b4b4b4;font-style:italic;&quot;&gt;# &lt;/span&gt;&lt;span style=&quot;color:#b4b4b4;font-style:italic;font-family:'宋体',monospace;&quot;&gt;把主界面移到屏幕底部&lt;br&gt;&lt;/span&gt;&lt;span style=&quot;color:#b4b4b4;font-style:italic;font-family:'宋体',monospace;&quot;&gt;    &lt;/span&gt;&lt;span style=&quot;color:#f27a42;font-style:italic;&quot;&gt;self&lt;/span&gt;&lt;span style=&quot;color:#939293;&quot;&gt;.&lt;/span&gt;ui&lt;span style=&quot;color:#939293;&quot;&gt;.&lt;/span&gt;moveToTheBottomOfTheScreen_button&lt;span style=&quot;color:#939293;&quot;&gt;.&lt;/span&gt;clicked&lt;span style=&quot;color:#939293;&quot;&gt;.&lt;/span&gt;&lt;span style=&quot;color:#a9dc76;&quot;&gt;connect&lt;/span&gt;&lt;span style=&quot;color:#ffd866;&quot;&gt;(&lt;/span&gt;&lt;span style=&quot;color:#ff6188;font-style:italic;&quot;&gt;lambda&lt;/span&gt;&lt;span style=&quot;color:#ff6188;&quot;&gt;: &lt;/span&gt;&lt;span style=&quot;color:#f27a42;font-style:italic;&quot;&gt;self&lt;/span&gt;&lt;span style=&quot;color:#939293;&quot;&gt;.&lt;/span&gt;pet&lt;span style=&quot;color:#939293;&quot;&gt;.&lt;/span&gt;&lt;span style=&quot;color:#a9dc76;&quot;&gt;moveMainWindow2&lt;/span&gt;&lt;span style=&quot;color:#ff6188;&quot;&gt;(&lt;/span&gt;&lt;span style=&quot;color:#f27a42;font-style:italic;&quot;&gt;self&lt;/span&gt;&lt;span style=&quot;color:#939293;&quot;&gt;.&lt;/span&gt;pet&lt;span style=&quot;color:#939293;&quot;&gt;.&lt;/span&gt;&lt;span style=&quot;color:#a9dc76;&quot;&gt;bottomPosUpdata&lt;/span&gt;&lt;span style=&quot;color:#ab9df2;&quot;&gt;()&lt;/span&gt;&lt;span style=&quot;color:#ff6188;&quot;&gt;)&lt;/span&gt;&lt;span style=&quot;color:#ffd866;&quot;&gt;)&lt;br&gt;&lt;/span&gt;&lt;span style=&quot;color:#ffd866;&quot;&gt;    &lt;/span&gt;&lt;span style=&quot;color:#b4b4b4;font-style:italic;&quot;&gt;# &lt;/span&gt;&lt;span style=&quot;color:#b4b4b4;font-style:italic;font-family:'宋体',monospace;&quot;&gt;把主界面移到屏幕中央&lt;br&gt;&lt;/span&gt;&lt;span style=&quot;color:#b4b4b4;font-style:italic;font-family:'宋体',monospace;&quot;&gt;    &lt;/span&gt;&lt;span style=&quot;color:#f27a42;font-style:italic;&quot;&gt;self&lt;/span&gt;&lt;span style=&quot;color:#939293;&quot;&gt;.&lt;/span&gt;ui&lt;span style=&quot;color:#939293;&quot;&gt;.&lt;/span&gt;moveToTheCenterOfTheScreen_button&lt;span style=&quot;color:#939293;&quot;&gt;.&lt;/span&gt;clicked&lt;span style=&quot;color:#939293;&quot;&gt;.&lt;/span&gt;&lt;span style=&quot;color:#a9dc76;&quot;&gt;connect&lt;/span&gt;&lt;span style=&quot;color:#ffd866;&quot;&gt;(&lt;/span&gt;&lt;span style=&quot;color:#ff6188;font-style:italic;&quot;&gt;lambda&lt;/span&gt;&lt;span style=&quot;color:#ff6188;&quot;&gt;: &lt;/span&gt;&lt;span style=&quot;color:#f27a42;font-style:italic;&quot;&gt;self&lt;/span&gt;&lt;span style=&quot;color:#939293;&quot;&gt;.&lt;/span&gt;pet&lt;span style=&quot;color:#939293;&quot;&gt;.&lt;/span&gt;&lt;span style=&quot;color:#a9dc76;&quot;&gt;moveMainWindow2&lt;/span&gt;&lt;span style=&quot;color:#ff6188;&quot;&gt;(&lt;/span&gt;&lt;span style=&quot;color:#f27a42;font-style:italic;&quot;&gt;self&lt;/span&gt;&lt;span style=&quot;color:#939293;&quot;&gt;.&lt;/span&gt;pet&lt;span style=&quot;color:#939293;&quot;&gt;.&lt;/span&gt;center&lt;span style=&quot;color:#ff6188;&quot;&gt;)&lt;/span&gt;&lt;span style=&quot;color:#ffd866;&quot;&gt;)&lt;br&gt;&lt;/span&gt;&lt;span style=&quot;color:#ffd866;&quot;&gt;    &lt;/span&gt;&lt;span style=&quot;color:#f27a42;font-style:italic;&quot;&gt;self&lt;/span&gt;&lt;span style=&quot;color:#939293;&quot;&gt;.&lt;/span&gt;ui&lt;span style=&quot;color:#939293;&quot;&gt;.&lt;/span&gt;east&lt;span style=&quot;color:#939293;&quot;&gt;.&lt;/span&gt;clicked&lt;span style=&quot;color:#939293;&quot;&gt;.&lt;/span&gt;&lt;span style=&quot;color:#a9dc76;&quot;&gt;connect&lt;/span&gt;&lt;span style=&quot;color:#ffd866;&quot;&gt;(&lt;/span&gt;&lt;span style=&quot;color:#ff6188;font-style:italic;&quot;&gt;lambda&lt;/span&gt;&lt;span style=&quot;color:#ff6188;&quot;&gt;: &lt;/span&gt;&lt;span style=&quot;color:#f27a42;font-style:italic;&quot;&gt;self&lt;/span&gt;&lt;span style=&quot;color:#939293;&quot;&gt;.&lt;/span&gt;pet&lt;span style=&quot;color:#939293;&quot;&gt;.&lt;/span&gt;&lt;span style=&quot;color:#a9dc76;&quot;&gt;moveStep&lt;/span&gt;&lt;span style=&quot;color:#ff6188;&quot;&gt;(&lt;/span&gt;&lt;span style=&quot;color:#ffd866;&quot;&gt;&quot;east&quot;&lt;/span&gt;&lt;span style=&quot;color:#939293;&quot;&gt;, &lt;/span&gt;&lt;span style=&quot;color:#78dce8;font-style:italic;&quot;&gt;int&lt;/span&gt;&lt;span style=&quot;color:#ab9df2;&quot;&gt;(&lt;/span&gt;&lt;span style=&quot;color:#f27a42;font-style:italic;&quot;&gt;self&lt;/span&gt;&lt;span style=&quot;color:#939293;&quot;&gt;.&lt;/span&gt;ui&lt;span style=&quot;color:#939293;&quot;&gt;.&lt;/span&gt;nSteps&lt;span style=&quot;color:#939293;&quot;&gt;.&lt;/span&gt;&lt;span style=&quot;color:#a9dc76;&quot;&gt;text&lt;/span&gt;&lt;span style=&quot;color:#78dce8;&quot;&gt;()&lt;/span&gt;&lt;span style=&quot;color:#ab9df2;&quot;&gt;)&lt;/span&gt;&lt;span style=&quot;color:#ff6188;&quot;&gt;)&lt;/span&gt;&lt;span style=&quot;color:#ffd866;&quot;&gt;)&lt;br&gt;&lt;/span&gt;&lt;span style=&quot;color:#ffd866;&quot;&gt;    &lt;/span&gt;&lt;span style=&quot;color:#f27a42;font-style:italic;&quot;&gt;self&lt;/span&gt;&lt;span style=&quot;color:#939293;&quot;&gt;.&lt;/span&gt;ui&lt;span style=&quot;color:#939293;&quot;&gt;.&lt;/span&gt;west&lt;span style=&quot;color:#939293;&quot;&gt;.&lt;/span&gt;clicked&lt;span style=&quot;color:#939293;&quot;&gt;.&lt;/span&gt;&lt;span style=&quot;color:#a9dc76;&quot;&gt;connect&lt;/span&gt;&lt;span style=&quot;color:#ffd866;&quot;&gt;(&lt;/span&gt;&lt;span style=&quot;color:#ff6188;font-style:italic;&quot;&gt;lambda&lt;/span&gt;&lt;span style=&quot;color:#ff6188;&quot;&gt;: &lt;/span&gt;&lt;span style=&quot;color:#f27a42;font-style:italic;&quot;&gt;self&lt;/span&gt;&lt;span style=&quot;color:#939293;&quot;&gt;.&lt;/span&gt;pet&lt;span style=&quot;color:#939293;&quot;&gt;.&lt;/span&gt;&lt;span style=&quot;color:#a9dc76;&quot;&gt;moveStep&lt;/span&gt;&lt;span style=&quot;color:#ff6188;&quot;&gt;(&lt;/span&gt;&lt;span style=&quot;color:#ffd866;&quot;&gt;&quot;west&quot;&lt;/span&gt;&lt;span style=&quot;color:#939293;&quot;&gt;, &lt;/span&gt;&lt;span style=&quot;color:#78dce8;font-style:italic;&quot;&gt;int&lt;/span&gt;&lt;span style=&quot;color:#ab9df2;&quot;&gt;(&lt;/span&gt;&lt;span style=&quot;color:#f27a42;font-style:italic;&quot;&gt;self&lt;/span&gt;&lt;span style=&quot;color:#939293;&quot;&gt;.&lt;/span&gt;ui&lt;span style=&quot;color:#939293;&quot;&gt;.&lt;/span&gt;nSteps&lt;span style=&quot;color:#939293;&quot;&gt;.&lt;/span&gt;&lt;span style=&quot;color:#a9dc76;&quot;&gt;text&lt;/span&gt;&lt;span style=&quot;color:#78dce8;&quot;&gt;()&lt;/span&gt;&lt;span style=&quot;color:#ab9df2;&quot;&gt;)&lt;/span&gt;&lt;span style=&quot;color:#ff6188;&quot;&gt;)&lt;/span&gt;&lt;span style=&quot;color:#ffd866;&quot;&gt;)&lt;br&gt;&lt;/span&gt;&lt;span style=&quot;color:#ffd866;&quot;&gt;    &lt;/span&gt;&lt;span style=&quot;color:#f27a42;font-style:italic;&quot;&gt;self&lt;/span&gt;&lt;span style=&quot;color:#939293;&quot;&gt;.&lt;/span&gt;ui&lt;span style=&quot;color:#939293;&quot;&gt;.&lt;/span&gt;north&lt;span style=&quot;color:#939293;&quot;&gt;.&lt;/span&gt;clicked&lt;span style=&quot;color:#939293;&quot;&gt;.&lt;/span&gt;&lt;span style=&quot;color:#a9dc76;&quot;&gt;connect&lt;/span&gt;&lt;span style=&quot;color:#ffd866;&quot;&gt;(&lt;/span&gt;&lt;span style=&quot;color:#ff6188;font-style:italic;&quot;&gt;lambda&lt;/span&gt;&lt;span style=&quot;color:#ff6188;&quot;&gt;: &lt;/span&gt;&lt;span style=&quot;color:#f27a42;font-style:italic;&quot;&gt;self&lt;/span&gt;&lt;span style=&quot;color:#939293;&quot;&gt;.&lt;/span&gt;pet&lt;span style=&quot;color:#939293;&quot;&gt;.&lt;/span&gt;&lt;span style=&quot;color:#a9dc76;&quot;&gt;moveStep&lt;/span&gt;&lt;span style=&quot;color:#ff6188;&quot;&gt;(&lt;/span&gt;&lt;span style=&quot;color:#ffd866;&quot;&gt;&quot;north&quot;&lt;/span&gt;&lt;span style=&quot;color:#939293;&quot;&gt;, &lt;/span&gt;&lt;span style=&quot;color:#78dce8;font-style:italic;&quot;&gt;int&lt;/span&gt;&lt;span style=&quot;color:#ab9df2;&quot;&gt;(&lt;/span&gt;&lt;span style=&quot;color:#f27a42;font-style:italic;&quot;&gt;self&lt;/span&gt;&lt;span style=&quot;color:#939293;&quot;&gt;.&lt;/span&gt;ui&lt;span style=&quot;color:#939293;&quot;&gt;.&lt;/span&gt;nSteps&lt;span style=&quot;color:#939293;&quot;&gt;.&lt;/span&gt;&lt;span style=&quot;color:#a9dc76;&quot;&gt;text&lt;/span&gt;&lt;span style=&quot;color:#78dce8;&quot;&gt;()&lt;/span&gt;&lt;span style=&quot;color:#ab9df2;&quot;&gt;)&lt;/span&gt;&lt;span style=&quot;color:#ff6188;&quot;&gt;)&lt;/span&gt;&lt;span style=&quot;color:#ffd866;&quot;&gt;)&lt;br&gt;&lt;/span&gt;&lt;span style=&quot;color:#ffd866;&quot;&gt;    &lt;/span&gt;&lt;span style=&quot;color:#f27a42;font-style:italic;&quot;&gt;self&lt;/span&gt;&lt;span style=&quot;color:#939293;&quot;&gt;.&lt;/span&gt;ui&lt;span style=&quot;color:#939293;&quot;&gt;.&lt;/span&gt;south&lt;span style=&quot;color:#939293;&quot;&gt;.&lt;/span&gt;clicked&lt;span style=&quot;color:#939293;&quot;&gt;.&lt;/span&gt;&lt;span style=&quot;color:#a9dc76;&quot;&gt;connect&lt;/span&gt;&lt;span style=&quot;color:#ffd866;&quot;&gt;(&lt;/span&gt;&lt;span style=&quot;color:#ff6188;font-style:italic;&quot;&gt;lambda&lt;/span&gt;&lt;span style=&quot;color:#ff6188;&quot;&gt;: &lt;/span&gt;&lt;span style=&quot;color:#f27a42;font-style:italic;&quot;&gt;self&lt;/span&gt;&lt;span style=&quot;color:#939293;&quot;&gt;.&lt;/span&gt;pet&lt;span style=&quot;color:#939293;&quot;&gt;.&lt;/span&gt;&lt;span style=&quot;color:#a9dc76;&quot;&gt;moveStep&lt;/span&gt;&lt;span style=&quot;color:#ff6188;&quot;&gt;(&lt;/span&gt;&lt;span style=&quot;color:#ffd866;&quot;&gt;&quot;south&quot;&lt;/span&gt;&lt;span style=&quot;color:#939293;&quot;&gt;, &lt;/span&gt;&lt;span style=&quot;color:#78dce8;font-style:italic;&quot;&gt;int&lt;/span&gt;&lt;span style=&quot;color:#ab9df2;&quot;&gt;(&lt;/span&gt;&lt;span style=&quot;color:#f27a42;font-style:italic;&quot;&gt;self&lt;/span&gt;&lt;span style=&quot;color:#939293;&quot;&gt;.&lt;/span&gt;ui&lt;span style=&quot;color:#939293;&quot;&gt;.&lt;/span&gt;nSteps&lt;span style=&quot;color:#939293;&quot;&gt;.&lt;/span&gt;&lt;span style=&quot;color:#a9dc76;&quot;&gt;text&lt;/span&gt;&lt;span style=&quot;color:#78dce8;&quot;&gt;()&lt;/span&gt;&lt;span style=&quot;color:#ab9df2;&quot;&gt;)&lt;/span&gt;&lt;span style=&quot;color:#ff6188;&quot;&gt;)&lt;/span&gt;&lt;span style=&quot;color:#ffd866;&quot;&gt;)&lt;br&gt;&lt;/span&gt;&lt;span style=&quot;color:#ffd866;&quot;&gt;    &lt;/span&gt;&lt;span style=&quot;color:#f27a42;font-style:italic;&quot;&gt;self&lt;/span&gt;&lt;span style=&quot;color:#939293;&quot;&gt;.&lt;/span&gt;ui&lt;span style=&quot;color:#939293;&quot;&gt;.&lt;/span&gt;nSteps&lt;span style=&quot;color:#939293;&quot;&gt;.&lt;/span&gt;&lt;span style=&quot;color:#a9dc76;&quot;&gt;setText&lt;/span&gt;&lt;span style=&quot;color:#ffd866;&quot;&gt;(&quot;200&quot;)&lt;br&gt;&lt;/span&gt;&lt;span style=&quot;color:#ffd866;&quot;&gt;    &lt;/span&gt;&lt;span style=&quot;color:#f27a42;font-style:italic;&quot;&gt;self&lt;/span&gt;&lt;span style=&quot;color:#939293;&quot;&gt;.&lt;/span&gt;ui&lt;span style=&quot;color:#939293;&quot;&gt;.&lt;/span&gt;goHome&lt;span style=&quot;color:#939293;&quot;&gt;.&lt;/span&gt;clicked&lt;span style=&quot;color:#939293;&quot;&gt;.&lt;/span&gt;&lt;span style=&quot;color:#a9dc76;&quot;&gt;connect&lt;/span&gt;&lt;span style=&quot;color:#ffd866;&quot;&gt;(&lt;/span&gt;&lt;span style=&quot;color:#ff6188;font-style:italic;&quot;&gt;lambda&lt;/span&gt;&lt;span style=&quot;color:#ff6188;&quot;&gt;: &lt;/span&gt;&lt;span style=&quot;color:#f27a42;font-style:italic;&quot;&gt;self&lt;/span&gt;&lt;span style=&quot;color:#939293;&quot;&gt;.&lt;/span&gt;pet&lt;span style=&quot;color:#939293;&quot;&gt;.&lt;/span&gt;&lt;span style=&quot;color:#a9dc76;&quot;&gt;hide_&lt;/span&gt;&lt;span style=&quot;color:#ff6188;&quot;&gt;()&lt;/span&gt;&lt;span style=&quot;color:#ffd866;&quot;&gt;)&lt;br&gt;&lt;/span&gt;&lt;span style=&quot;color:#ffd866;&quot;&gt;    &lt;/span&gt;&lt;span style=&quot;color:#f27a42;font-style:italic;&quot;&gt;self&lt;/span&gt;&lt;span style=&quot;color:#939293;&quot;&gt;.&lt;/span&gt;ui&lt;span style=&quot;color:#939293;&quot;&gt;.&lt;/span&gt;goOut&lt;span style=&quot;color:#939293;&quot;&gt;.&lt;/span&gt;clicked&lt;span style=&quot;color:#939293;&quot;&gt;.&lt;/span&gt;&lt;span style=&quot;color:#a9dc76;&quot;&gt;connect&lt;/span&gt;&lt;span style=&quot;color:#ffd866;&quot;&gt;(&lt;/span&gt;&lt;span style=&quot;color:#ff6188;font-style:italic;&quot;&gt;lambda&lt;/span&gt;&lt;span style=&quot;color:#ff6188;&quot;&gt;: &lt;/span&gt;&lt;span style=&quot;color:#f27a42;font-style:italic;&quot;&gt;self&lt;/span&gt;&lt;span style=&quot;color:#939293;&quot;&gt;.&lt;/span&gt;pet&lt;span style=&quot;color:#939293;&quot;&gt;.&lt;/span&gt;&lt;span style=&quot;color:#a9dc76;&quot;&gt;show_&lt;/span&gt;&lt;span style=&quot;color:#ff6188;&quot;&gt;()&lt;/span&gt;&lt;span style=&quot;color:#ffd866;&quot;&gt;)&lt;br&gt;&lt;/span&gt;&lt;/div&gt;&lt;/div&gt;" style="text;html=1;align=left;verticalAlign=middle;resizable=0;points=[];autosize=1;strokeColor=none;fillColor=none;" parent="K8BKGlM56tcpJbywQDiU-67" vertex="1"><mxGeometry y="35" width="790" height="440" as="geometry"/></mxCell><mxCell id="ngExV_0SpiD9kxkRd0u9-4" value="AI_.py" style="swimlane;horizontal=0;whiteSpace=wrap;html=1;" parent="1" vertex="1"><mxGeometry x="-830" y="-370" width="800" height="220" as="geometry"/></mxCell><mxCell id="ngExV_0SpiD9kxkRd0u9-5" value="AI&amp;nbsp; :&amp;nbsp; class" style="swimlane;horizontal=0;whiteSpace=wrap;html=1;" parent="ngExV_0SpiD9kxkRd0u9-4" vertex="1"><mxGeometry x="35" y="20" width="745" height="200" as="geometry"/></mxCell><mxCell id="ngExV_0SpiD9kxkRd0u9-6" value="__init__&amp;nbsp; :&amp;nbsp; func" style="swimlane;horizontal=0;whiteSpace=wrap;html=1;" parent="ngExV_0SpiD9kxkRd0u9-5" vertex="1"><mxGeometry x="48" width="200" height="200" as="geometry"/></mxCell><mxCell id="ngExV_0SpiD9kxkRd0u9-7" value="run&amp;nbsp; :&amp;nbsp; func" style="swimlane;horizontal=0;whiteSpace=wrap;html=1;" parent="ngExV_0SpiD9kxkRd0u9-5" vertex="1"><mxGeometry x="282" width="200" height="200" as="geometry"/></mxCell></root></mxGraphModel></diagram><diagram id="8O2g3r1tw50o_vWZntjP" name="Page-2"><mxGraphModel dx="725" dy="553" grid="1" gridSize="10" guides="1" tooltips="1" connect="1" arrows="1" fold="1" page="1" pageScale="1" pageWidth="850" pageHeight="1100" math="0" shadow="0"><root><mxCell id="0"/><mxCell id="1" parent="0"/><mxCell id="nMoFwzn_yRuAtYS6NXii-7" value="" style="edgeStyle=orthogonalEdgeStyle;rounded=0;orthogonalLoop=1;jettySize=auto;html=1;" parent="1" source="nMoFwzn_yRuAtYS6NXii-1" target="nMoFwzn_yRuAtYS6NXii-4" edge="1"><mxGeometry relative="1" as="geometry"/></mxCell><mxCell id="nMoFwzn_yRuAtYS6NXii-1" value="run" style="rounded=0;whiteSpace=wrap;html=1;" parent="1" vertex="1"><mxGeometry x="200" y="250" width="120" height="60" as="geometry"/></mxCell><mxCell id="nMoFwzn_yRuAtYS6NXii-10" value="" style="edgeStyle=orthogonalEdgeStyle;rounded=0;orthogonalLoop=1;jettySize=auto;html=1;" parent="1" source="nMoFwzn_yRuAtYS6NXii-2" target="nMoFwzn_yRuAtYS6NXii-9" edge="1"><mxGeometry relative="1" as="geometry"/></mxCell><mxCell id="nMoFwzn_yRuAtYS6NXii-2" value="系统拖盘" style="rounded=0;whiteSpace=wrap;html=1;" parent="1" vertex="1"><mxGeometry x="490" y="250" width="120" height="60" as="geometry"/></mxCell><mxCell id="nMoFwzn_yRuAtYS6NXii-8" value="" style="edgeStyle=orthogonalEdgeStyle;rounded=0;orthogonalLoop=1;jettySize=auto;html=1;" parent="1" source="nMoFwzn_yRuAtYS6NXii-4" target="nMoFwzn_yRuAtYS6NXii-2" edge="1"><mxGeometry relative="1" as="geometry"/></mxCell><mxCell id="nMoFwzn_yRuAtYS6NXii-4" value="控制窗口" style="rounded=0;whiteSpace=wrap;html=1;" parent="1" vertex="1"><mxGeometry x="350" y="250" width="120" height="60" as="geometry"/></mxCell><mxCell id="nMoFwzn_yRuAtYS6NXii-9" value="初始化pet" style="rounded=0;whiteSpace=wrap;html=1;" parent="1" vertex="1"><mxGeometry x="490" y="330" width="120" height="60" as="geometry"/></mxCell></root></mxGraphModel></diagram></mxfile>